<svg xmlns="http://www.w3.org/2000/svg" xmlns:xlink="http://www.w3.org/1999/xlink" width="100" height="19" version="1.1" viewBox="0 0 100 19"><title>MySwagify</title><desc>Created with Sketch.</desc><g id="Products-and-Design" fill="none" fill-rule="evenodd" stroke="none" stroke-width="1"><g id="Product-Detail" fill="#2C3E50" fill-rule="nonzero" transform="translate(-55.000000, -19.000000)"><g id="Header"><path id="MySwagify" d="M57.672,34 L58.392,28.06 L61.848,33.82 L61.884,33.82 L66.96,27.682 L66.186,34 L68.796,34 L70.488,20.212 L70.452,20.212 L62.424,29.752 L56.862,20.212 L56.844,20.212 L55.152,34 L57.672,34 Z M74.7,37.78 L81.216,26.134 L78.948,26.134 L76.284,30.778 L74.79,26.134 L71.964,26.134 L74.682,33.586 L72.27,37.78 L74.7,37.78 Z M91.26,34.126 C92.124,34.126 92.889,33.967 93.555,33.649 C94.221,33.331 94.746,32.905 95.13,32.371 C95.514,31.837 95.748,31.246 95.832,30.598 C95.856,30.454 95.868,30.244 95.868,29.968 C95.868,29.056 95.628,28.342 95.148,27.826 C94.668,27.31 94.008,26.86 93.168,26.476 C92.424,26.152 91.842,25.816 91.422,25.468 C91.002,25.12 90.822,24.736 90.882,24.316 C90.99,23.476 91.584,23.056 92.664,23.056 C93.54,23.056 94.566,23.434 95.742,24.19 L95.742,24.19 L96.984,22.264 C96.396,21.82 95.787,21.469 95.157,21.211 C94.527,20.953 93.726,20.794 92.754,20.734 C91.494,20.71 90.447,21.022 89.613,21.67 C88.779,22.318 88.296,23.212 88.164,24.352 C88.14,24.592 88.128,24.766 88.128,24.874 C88.128,25.534 88.29,26.095 88.614,26.557 C88.938,27.019 89.319,27.388 89.757,27.664 C90.195,27.94 90.744,28.234 91.404,28.546 C92.616,29.122 93.186,29.752 93.114,30.436 C93.054,30.928 92.835,31.279 92.457,31.489 C92.079,31.699 91.626,31.804 91.098,31.804 C90.618,31.804 90.072,31.678 89.46,31.426 C88.848,31.174 88.32,30.85 87.876,30.454 L87.876,30.454 L86.472,32.416 C87.156,32.98 87.912,33.406 88.74,33.694 C89.568,33.982 90.408,34.126 91.26,34.126 Z M104.472,34.18 L108.936,26.134 L106.488,26.134 L104.778,29.5 L103.716,26.134 L101.574,26.134 L101.88,27.034 L100.494,29.356 L99.432,26.134 L96.984,26.134 L99.504,34.162 L99.648,34.162 L102.492,29.104 L104.328,34.18 L104.472,34.18 Z M112.59,34.18 C113.754,34.204 114.768,33.82 115.632,33.028 L115.632,33.028 L115.524,34 L118.044,34 L118.998,26.134 L116.658,26.134 L116.388,26.944 C116.136,26.572 115.818,26.278 115.434,26.062 C115.05,25.846 114.51,25.738 113.814,25.738 C112.974,25.738 112.218,25.957 111.546,26.395 C110.874,26.833 110.346,27.406 109.962,28.114 C109.578,28.822 109.386,29.566 109.386,30.346 C109.386,31.126 109.542,31.81 109.854,32.398 C110.166,32.986 110.568,33.433 111.06,33.739 C111.552,34.045 112.062,34.192 112.59,34.18 Z M114.012,32.164 C113.4,32.164 112.911,31.972 112.545,31.588 C112.179,31.204 111.996,30.688 111.996,30.04 C111.996,29.692 112.077,29.344 112.239,28.996 C112.401,28.648 112.653,28.36 112.995,28.132 C113.337,27.904 113.766,27.79 114.282,27.79 C114.762,27.79 115.164,27.904 115.488,28.132 C115.812,28.36 116.022,28.666 116.118,29.05 L116.118,29.05 L115.884,30.976 C115.644,31.372 115.362,31.669 115.038,31.867 C114.714,32.065 114.372,32.164 114.012,32.164 Z M124.632,37.96 C125.448,37.96 126.204,37.822 126.9,37.546 C127.596,37.27 128.169,36.865 128.619,36.331 C129.069,35.797 129.336,35.158 129.42,34.414 L129.42,34.414 L130.464,26.134 L128.142,26.134 L127.89,26.728 C127.65,26.428 127.293,26.188 126.819,26.008 C126.345,25.828 125.778,25.738 125.118,25.738 C124.146,25.738 123.312,25.966 122.616,26.422 C121.92,26.878 121.398,27.445 121.05,28.123 C120.702,28.801 120.528,29.458 120.528,30.094 C120.528,30.958 120.696,31.699 121.032,32.317 C121.368,32.935 121.827,33.406 122.409,33.73 C122.991,34.054 123.648,34.216 124.38,34.216 C125.004,34.216 125.547,34.099 126.009,33.865 C126.471,33.631 126.84,33.322 127.116,32.938 L127.116,32.938 L126.99,33.964 C126.93,34.528 126.696,34.969 126.288,35.287 C125.88,35.605 125.406,35.764 124.866,35.764 C124.254,35.764 123.753,35.668 123.363,35.476 C122.973,35.284 122.598,35.02 122.238,34.684 L122.238,34.684 L120.546,36.412 C120.93,36.736 121.275,36.997 121.581,37.195 C121.887,37.393 122.295,37.57 122.805,37.726 C123.315,37.882 123.924,37.96 124.632,37.96 Z M125.262,32.164 C124.578,32.164 124.047,31.984 123.669,31.624 C123.291,31.264 123.102,30.754 123.102,30.094 C123.102,29.746 123.189,29.395 123.363,29.041 C123.537,28.687 123.81,28.39 124.182,28.15 C124.554,27.91 125.016,27.79 125.568,27.79 C126.072,27.79 126.501,27.901 126.855,28.123 C127.209,28.345 127.452,28.654 127.584,29.05 L127.584,29.05 L127.35,30.976 C127.086,31.36 126.774,31.654 126.414,31.858 C126.054,32.062 125.67,32.164 125.262,32.164 Z M134.568,24.532 C134.988,24.532 135.333,24.4 135.603,24.136 C135.873,23.872 136.008,23.548 136.008,23.164 C136.008,22.768 135.87,22.474 135.594,22.282 C135.318,22.09 135.006,21.994 134.658,21.994 C134.238,21.994 133.893,22.126 133.623,22.39 C133.353,22.654 133.218,22.978 133.218,23.362 C133.218,23.758 133.356,24.052 133.632,24.244 C133.908,24.436 134.22,24.532 134.568,24.532 Z M134.604,34 L135.576,26.134 L133.056,26.134 L132.084,34 L134.604,34 Z M140.418,34 L141.102,28.33 L143.478,28.33 L143.766,26.098 L141.39,26.098 L141.714,23.434 C141.774,22.93 141.93,22.552 142.182,22.3 C142.434,22.048 142.746,21.922 143.118,21.922 C143.478,21.922 143.754,22.054 143.946,22.318 L143.946,22.318 L145.242,20.5 C144.966,20.284 144.63,20.122 144.234,20.014 C143.838,19.906 143.46,19.852 143.1,19.852 C141.996,19.852 141.102,20.173 140.418,20.815 C139.734,21.457 139.326,22.306 139.194,23.362 L139.194,23.362 L138.87,26.098 L137.538,26.098 L137.25,28.33 L138.582,28.33 L137.898,34 L140.418,34 Z M147.87,37.78 L154.386,26.134 L152.118,26.134 L149.454,30.778 L147.96,26.134 L145.134,26.134 L147.852,33.586 L145.44,37.78 L147.87,37.78 Z"/></g></g></g></svg>