<?xml version="1.0" encoding="UTF-8"?>
<svg width="159px" height="44px" viewBox="0 0 159 44" version="1.1" xmlns="http://www.w3.org/2000/svg" xmlns:xlink="http://www.w3.org/1999/xlink">
    <!-- Generator: Sketch 62 (91390) - https://sketch.com -->
    <title>Logo</title>
    <desc>Created with Sketch.</desc>
    <defs>
        <linearGradient x1="-0.000279194431%" y1="50%" x2="100.000651%" y2="50%" id="linearGradient-1">
            <stop stop-color="#6441A5" offset="0%"></stop>
            <stop stop-color="#9146FF" offset="100%"></stop>
        </linearGradient>
        <linearGradient x1="0.00018850086%" y1="50%" x2="100.000046%" y2="50%" id="linearGradient-2">
            <stop stop-color="#6441A5" offset="0%"></stop>
            <stop stop-color="#9146FF" offset="100%"></stop>
        </linearGradient>
    </defs>
    <g id="Redesign" stroke="none" stroke-width="1" fill="none" fill-rule="evenodd">
        <g id="Homepage" transform="translate(-148.000000, -12.000000)">
            <g id="Logo" transform="translate(145.000000, 10.000000)">
                <text id="Swagify" font-family="JosefinSans-BoldItalic, Josefin Sans" font-size="28" font-style="italic" font-weight="bold" line-spacing="36" fill="#222F3E">
                    <tspan x="56" y="36">Swagify</tspan>
                </text>
                <g id="Swagify-Logo-Icon">
                    <rect id="Rectangle" fill-opacity="0" fill="#FFFFFF" x="0.0710584752" y="0.0213175426" width="47.7512953" height="47.7512953"></rect>
                    <g id="Group" transform="translate(3.481865, 2.238342)">
                        <path d="M22.5867038,0.0429761658 C27.6469768,0.0429761658 31.7491541,4.14515352 31.7491541,9.20559704 C31.7491541,10.7825836 31.7491541,11.9257155 31.7491541,11.9257155 L13.4242534,11.9257155 L13.4242534,9.20559704 C13.4242534,4.14515352 17.5264308,0.0429761658 22.5867038,0.0429761658 C22.5867038,0.0429761658 22.5867038,0.0429761658 22.5867038,0.0429761658 Z M29.744964,9.20559704 C29.744964,5.25213087 26.5399994,2.04733679 22.5867038,2.04733679 L22.5867038,2.04733679 C18.6334081,2.04733679 15.4284435,5.25213087 15.4284435,9.20559704 C15.4284435,9.64900192 15.4284435,9.92135485 15.4284435,9.92135485 L29.744964,9.92135485 L29.744964,9.20559704 Z" id="Shape" fill="url(#linearGradient-1)"></path>
                        <path d="M15.4616989,6.70411132 L15.4615283,6.70411132 C9.75985315,6.70411132 4.88376373,10.8040717 3.90520326,16.4211588 C2.25744249,25.8793261 -1.89478063e-14,38.8361285 -1.89478063e-14,38.8361285 L2.13209534,39.5518863 L4.27970984,43.2742703 L4.27970984,28.3850754 L15.4616989,6.70411132 Z" id="Path" fill="#371C81"></path>
                    </g>
                    <path d="M44.411547,21.460967 L25.0843808,21.460967 C24.7426179,21.460967 24.4148394,21.5967171 24.1733543,21.8383728 C23.9316986,22.0800284 23.7959485,22.4076364 23.7959485,22.7493993 L23.7959485,23.7516648 L44.411547,23.7516648 L44.411547,35.204813 C44.411547,40.8976201 39.7965548,45.5126123 34.1037477,45.5126123 L7.76157513,45.5126123 L7.76157513,32.9141152 L26.9265575,32.9141152 C27.3061803,32.9141152 27.6702839,32.763187 27.938885,32.4947565 C28.2073155,32.226326 28.3582437,31.8622224 28.3582437,31.482429 L28.3582437,30.6234173 L7.76157513,30.6234173 C7.76157513,30.6234173 7.74332731,24.8637584 7.72553902,19.2865776 C7.70768438,13.5937705 12.3080101,8.96428246 18.0008172,8.94620518 C28.8620198,8.91175603 44.411547,8.86246987 44.411547,8.86246987 L44.411547,21.460967 Z M21.7559449,10.5804933 C23.1780808,10.5804933 24.3328095,11.7352219 24.3328095,13.1573578 C24.3328095,14.5796642 23.1780808,15.7343929 21.7559449,15.7343929 C20.3336385,15.7343929 19.1789098,14.5796642 19.1789098,13.1573578 C19.1789098,11.7352219 20.3336385,10.5804933 21.7559449,10.5804933 Z M30.3487905,10.5804933 C31.7709264,10.5804933 32.9256551,11.7352219 32.9256551,13.1573578 C32.9256551,14.5796642 31.7709264,15.7343929 30.3487905,15.7343929 C28.9264841,15.7343929 27.7717554,14.5796642 27.7717554,13.1573578 C27.7717554,11.7352219 28.9264841,10.5804933 30.3487905,10.5804933 L30.3487905,10.5804933 Z" id="Base-Main-fordivsion" fill="url(#linearGradient-2)"></path>
                </g>
            </g>
        </g>
    </g>
</svg>