<svg xmlns="http://www.w3.org/2000/svg" xmlns:xlink="http://www.w3.org/1999/xlink" width="32" height="34" version="1.1" viewBox="0 0 32 34"><title>Swagify-Logo</title><desc>Created with Sketch.</desc><defs><linearGradient id="linearGradient-1" x1="0%" x2="100.001%" y1="50%" y2="50%"><stop offset="0%" stop-color="#6441A5"/><stop offset="100%" stop-color="#9146FF"/></linearGradient><linearGradient id="linearGradient-2" x1="0%" x2="100%" y1="50%" y2="50%"><stop offset="0%" stop-color="#6441A5"/><stop offset="100%" stop-color="#9146FF"/></linearGradient></defs><g id="Products-and-Design" fill="none" fill-rule="evenodd" stroke="none" stroke-width="1"><g id="Product-Creation-Step-4" transform="translate(-12.000000, -11.000000)"><g id="Header"><g id="Swagify-Logo" transform="translate(10.000000, 10.000000)"><rect id="Rectangle" width="35.813" height="35.813" x=".053" y=".016" fill="#FFF" fill-opacity="0"/><g id="Group" transform="translate(2.611399, 1.678756)"><path id="Shape" fill="url(#linearGradient-1)" d="M16.9400278,0.0322321244 C20.7352326,0.0322321244 23.8118656,3.10886514 23.8118656,6.90419778 C23.8118656,8.08693768 23.8118656,8.9442866 23.8118656,8.9442866 L10.0681901,8.9442866 L10.0681901,6.90419778 C10.0681901,3.10886514 13.1448231,0.0322321244 16.9400278,0.0322321244 C16.9400278,0.0322321244 16.9400278,0.0322321244 16.9400278,0.0322321244 Z M22.308723,6.90419778 C22.308723,3.93909815 19.9049996,1.53550259 16.9400278,1.53550259 L16.9400278,1.53550259 C13.9750561,1.53550259 11.5713326,3.93909815 11.5713326,6.90419778 C11.5713326,7.23675144 11.5713326,7.44101614 11.5713326,7.44101614 L22.308723,7.44101614 L22.308723,6.90419778 Z"/><path id="Path" fill="#371C81" d="M11.5962742,5.02808349 L11.5961463,5.02808349 C7.31988986,5.02808349 3.6628228,8.10305374 2.92890244,12.3158691 C1.69308187,19.4094946 -1.42108547e-14,29.1270964 -1.42108547e-14,29.1270964 L1.5990715,29.6639147 L3.20978238,32.4557027 L3.20978238,21.2888065 L11.5962742,5.02808349 Z"/></g><path id="Base-Main-fordivsion" fill="url(#linearGradient-2)" d="M33.3086603,16.0957252 L18.8132856,16.0957252 C18.5569634,16.0957252 18.3111295,16.1975378 18.1300157,16.3787796 C17.9487739,16.5600213 17.8469614,16.8057273 17.8469614,17.0620494 L17.8469614,17.8137486 L33.3086603,17.8137486 L33.3086603,26.4036098 C33.3086603,30.6732151 29.8474161,34.1344592 25.5778108,34.1344592 L5.82118135,34.1344592 L5.82118135,24.6855864 L20.1949181,24.6855864 C20.4796352,24.6855864 20.752713,24.5723902 20.9541637,24.3710674 C21.1554866,24.1697445 21.2686828,23.8966668 21.2686828,23.6118218 L21.2686828,22.967563 L5.82118135,22.967563 C5.82118135,22.967563 5.80749548,18.6478188 5.79415426,14.4649332 C5.78076329,10.1953279 9.23100755,6.72321184 13.5006129,6.70965389 C21.6465149,6.68381702 33.3086603,6.64685241 33.3086603,6.64685241 L33.3086603,16.0957252 Z M16.3169587,7.93536995 C17.3835606,7.93536995 18.2496071,8.80141643 18.2496071,9.86801836 C18.2496071,10.9347482 17.3835606,11.8007947 16.3169587,11.8007947 C15.2502289,11.8007947 14.3841824,10.9347482 14.3841824,9.86801836 C14.3841824,8.80141643 15.2502289,7.93536995 16.3169587,7.93536995 Z M22.7615929,7.93536995 C23.8281948,7.93536995 24.6942413,8.80141643 24.6942413,9.86801836 C24.6942413,10.9347482 23.8281948,11.8007947 22.7615929,11.8007947 C21.6948631,11.8007947 20.8288166,10.9347482 20.8288166,9.86801836 C20.8288166,8.80141643 21.6948631,7.93536995 22.7615929,7.93536995 L22.7615929,7.93536995 Z"/></g></g></g></g></svg>