<?xml version="1.0" encoding="UTF-8"?>
<svg width="129px" height="34px" viewBox="0 0 129 34" version="1.1" xmlns="http://www.w3.org/2000/svg" xmlns:xlink="http://www.w3.org/1999/xlink">
    <!-- Generator: Sketch 62 (91390) - https://sketch.com -->
    <title>Logo</title>
    <desc>Created with Sketch.</desc>
    <defs>
        <linearGradient x1="-0.000279194431%" y1="50%" x2="100.000651%" y2="50%" id="linearGradient-1">
            <stop stop-color="#6441A5" offset="0%"></stop>
            <stop stop-color="#9146FF" offset="100%"></stop>
        </linearGradient>
        <linearGradient x1="0.00018850086%" y1="50%" x2="100.000046%" y2="50%" id="linearGradient-2">
            <stop stop-color="#6441A5" offset="0%"></stop>
            <stop stop-color="#9146FF" offset="100%"></stop>
        </linearGradient>
    </defs>
    <g id="Redesign" stroke="none" stroke-width="1" fill="none" fill-rule="evenodd">
        <g id="Homepage" transform="translate(-147.000000, -18.000000)">
            <g id="Logo" transform="translate(145.000000, 17.000000)">
                <g id="Group-17">
                    <path d="M46.384,26.032 C47.536,26.032 48.556,25.82 49.444,25.396 C50.332,24.972 51.032,24.404 51.544,23.692 C52.056,22.98 52.368,22.192 52.48,21.328 C52.512,21.136 52.528,20.856 52.528,20.488 C52.528,19.272 52.208,18.32 51.568,17.632 C50.928,16.944 50.048,16.344 48.928,15.832 C47.936,15.4 47.16,14.952 46.6,14.488 C46.04,14.024 45.8,13.512 45.88,12.952 C46.024,11.832 46.816,11.272 48.256,11.272 C49.424,11.272 50.792,11.776 52.36,12.784 L52.36,12.784 L54.016,10.216 C53.232,9.624 52.42,9.156 51.58,8.812 C50.74,8.468 49.672,8.256 48.376,8.176 C46.696,8.144 45.3,8.56 44.188,9.424 C43.076,10.288 42.432,11.48 42.256,13 C42.224,13.32 42.208,13.552 42.208,13.696 C42.208,14.576 42.424,15.324 42.856,15.94 C43.288,16.556 43.796,17.048 44.38,17.416 C44.964,17.784 45.696,18.176 46.576,18.592 C48.192,19.36 48.952,20.2 48.856,21.112 C48.776,21.768 48.484,22.236 47.98,22.516 C47.476,22.796 46.872,22.936 46.168,22.936 C45.528,22.936 44.8,22.768 43.984,22.432 C43.168,22.096 42.464,21.664 41.872,21.136 L41.872,21.136 L40,23.752 C40.912,24.504 41.92,25.072 43.024,25.456 C44.128,25.84 45.248,26.032 46.384,26.032 Z M64,26.104 L69.952,15.376 L66.688,15.376 L64.408,19.864 L62.992,15.376 L60.136,15.376 L60.544,16.576 L58.696,19.672 L57.28,15.376 L54.016,15.376 L57.376,26.08 L57.568,26.08 L61.36,19.336 L63.808,26.104 L64,26.104 Z M74.824,26.104 C76.376,26.136 77.728,25.624 78.88,24.568 L78.88,24.568 L78.736,25.864 L82.096,25.864 L83.368,15.376 L80.248,15.376 L79.888,16.456 C79.552,15.96 79.128,15.568 78.616,15.28 C78.104,14.992 77.384,14.848 76.456,14.848 C75.336,14.848 74.328,15.14 73.432,15.724 C72.536,16.308 71.832,17.072 71.32,18.016 C70.808,18.96 70.552,19.952 70.552,20.992 C70.552,22.032 70.76,22.944 71.176,23.728 C71.592,24.512 72.128,25.108 72.784,25.516 C73.44,25.924 74.12,26.12 74.824,26.104 Z M76.72,23.416 C75.904,23.416 75.252,23.16 74.764,22.648 C74.276,22.136 74.032,21.448 74.032,20.584 C74.032,20.12 74.14,19.656 74.356,19.192 C74.572,18.728 74.908,18.344 75.364,18.04 C75.82,17.736 76.392,17.584 77.08,17.584 C77.72,17.584 78.256,17.736 78.688,18.04 C79.12,18.344 79.4,18.752 79.528,19.264 L79.528,19.264 L79.216,21.832 C78.896,22.36 78.52,22.756 78.088,23.02 C77.656,23.284 77.2,23.416 76.72,23.416 Z M90.88,31.144 C91.968,31.144 92.976,30.96 93.904,30.592 C94.832,30.224 95.596,29.684 96.196,28.972 C96.796,28.26 97.152,27.408 97.264,26.416 L97.264,26.416 L98.656,15.376 L95.56,15.376 L95.224,16.168 C94.904,15.768 94.428,15.448 93.796,15.208 C93.164,14.968 92.408,14.848 91.528,14.848 C90.232,14.848 89.12,15.152 88.192,15.76 C87.264,16.368 86.568,17.124 86.104,18.028 C85.64,18.932 85.408,19.808 85.408,20.656 C85.408,21.808 85.632,22.796 86.08,23.62 C86.528,24.444 87.14,25.072 87.916,25.504 C88.692,25.936 89.568,26.152 90.544,26.152 C91.376,26.152 92.1,25.996 92.716,25.684 C93.332,25.372 93.824,24.96 94.192,24.448 L94.192,24.448 L94.024,25.816 C93.944,26.568 93.632,27.156 93.088,27.58 C92.544,28.004 91.912,28.216 91.192,28.216 C90.376,28.216 89.708,28.088 89.188,27.832 C88.668,27.576 88.168,27.224 87.688,26.776 L87.688,26.776 L85.432,29.08 C85.944,29.512 86.404,29.86 86.812,30.124 C87.22,30.388 87.764,30.624 88.444,30.832 C89.124,31.04 89.936,31.144 90.88,31.144 Z M91.72,23.416 C90.808,23.416 90.1,23.176 89.596,22.696 C89.092,22.216 88.84,21.536 88.84,20.656 C88.84,20.192 88.956,19.724 89.188,19.252 C89.42,18.78 89.784,18.384 90.28,18.064 C90.776,17.744 91.392,17.584 92.128,17.584 C92.8,17.584 93.372,17.732 93.844,18.028 C94.316,18.324 94.64,18.736 94.816,19.264 L94.816,19.264 L94.504,21.832 C94.152,22.344 93.736,22.736 93.256,23.008 C92.776,23.28 92.264,23.416 91.72,23.416 Z M104.128,13.24 C104.688,13.24 105.148,13.064 105.508,12.712 C105.868,12.36 106.048,11.928 106.048,11.416 C106.048,10.888 105.864,10.496 105.496,10.24 C105.128,9.984 104.712,9.856 104.248,9.856 C103.688,9.856 103.228,10.032 102.868,10.384 C102.508,10.736 102.328,11.168 102.328,11.68 C102.328,12.208 102.512,12.6 102.88,12.856 C103.248,13.112 103.664,13.24 104.128,13.24 Z M104.176,25.864 L105.472,15.376 L102.112,15.376 L100.816,25.864 L104.176,25.864 Z M111.928,25.864 L112.84,18.304 L116.008,18.304 L116.392,15.328 L113.224,15.328 L113.656,11.776 C113.736,11.104 113.944,10.6 114.28,10.264 C114.616,9.928 115.032,9.76 115.528,9.76 C116.008,9.76 116.376,9.936 116.632,10.288 L116.632,10.288 L118.36,7.864 C117.992,7.576 117.544,7.36 117.016,7.216 C116.488,7.072 115.984,7 115.504,7 C114.032,7 112.84,7.428 111.928,8.284 C111.016,9.14 110.472,10.272 110.296,11.68 L110.296,11.68 L109.864,15.328 L108.088,15.328 L107.704,18.304 L109.48,18.304 L108.568,25.864 L111.928,25.864 Z M121.864,30.904 L130.552,15.376 L127.528,15.376 L123.976,21.568 L121.984,15.376 L118.216,15.376 L121.84,25.312 L118.624,30.904 L121.864,30.904 Z" id="Swagify" fill="#222F3E" fill-rule="nonzero"></path>
                    <g id="Swagify-Logo-Icon">
                        <rect id="Rectangle" fill-opacity="0" fill="#FFFFFF" x="0.0532938564" y="0.0159881569" width="35.8134715" height="35.8134715"></rect>
                        <g id="Group" transform="translate(2.611399, 1.678756)">
                            <path d="M16.9400278,0.0322321244 C20.7352326,0.0322321244 23.8118656,3.10886514 23.8118656,6.90419778 C23.8118656,8.08693768 23.8118656,8.9442866 23.8118656,8.9442866 L10.0681901,8.9442866 L10.0681901,6.90419778 C10.0681901,3.10886514 13.1448231,0.0322321244 16.9400278,0.0322321244 C16.9400278,0.0322321244 16.9400278,0.0322321244 16.9400278,0.0322321244 Z M22.308723,6.90419778 C22.308723,3.93909815 19.9049996,1.53550259 16.9400278,1.53550259 L16.9400278,1.53550259 C13.9750561,1.53550259 11.5713326,3.93909815 11.5713326,6.90419778 C11.5713326,7.23675144 11.5713326,7.44101614 11.5713326,7.44101614 L22.308723,7.44101614 L22.308723,6.90419778 Z" id="Shape" fill="url(#linearGradient-1)"></path>
                            <path d="M11.5962742,5.02808349 L11.5961463,5.02808349 C7.31988986,5.02808349 3.6628228,8.10305374 2.92890244,12.3158691 C1.69308187,19.4094946 -1.42108547e-14,29.1270964 -1.42108547e-14,29.1270964 L1.5990715,29.6639147 L3.20978238,32.4557027 L3.20978238,21.2888065 L11.5962742,5.02808349 Z" id="Path" fill="#371C81"></path>
                        </g>
                        <path d="M33.3086603,16.0957252 L18.8132856,16.0957252 C18.5569634,16.0957252 18.3111295,16.1975378 18.1300157,16.3787796 C17.9487739,16.5600213 17.8469614,16.8057273 17.8469614,17.0620494 L17.8469614,17.8137486 L33.3086603,17.8137486 L33.3086603,26.4036098 C33.3086603,30.6732151 29.8474161,34.1344592 25.5778108,34.1344592 L5.82118135,34.1344592 L5.82118135,24.6855864 L20.1949181,24.6855864 C20.4796352,24.6855864 20.752713,24.5723902 20.9541637,24.3710674 C21.1554866,24.1697445 21.2686828,23.8966668 21.2686828,23.6118218 L21.2686828,22.967563 L5.82118135,22.967563 C5.82118135,22.967563 5.80749548,18.6478188 5.79415426,14.4649332 C5.78076329,10.1953279 9.23100755,6.72321184 13.5006129,6.70965389 C21.6465149,6.68381702 33.3086603,6.64685241 33.3086603,6.64685241 L33.3086603,16.0957252 Z M16.3169587,7.93536995 C17.3835606,7.93536995 18.2496071,8.80141643 18.2496071,9.86801836 C18.2496071,10.9347482 17.3835606,11.8007947 16.3169587,11.8007947 C15.2502289,11.8007947 14.3841824,10.9347482 14.3841824,9.86801836 C14.3841824,8.80141643 15.2502289,7.93536995 16.3169587,7.93536995 Z M22.7615929,7.93536995 C23.8281948,7.93536995 24.6942413,8.80141643 24.6942413,9.86801836 C24.6942413,10.9347482 23.8281948,11.8007947 22.7615929,11.8007947 C21.6948631,11.8007947 20.8288166,10.9347482 20.8288166,9.86801836 C20.8288166,8.80141643 21.6948631,7.93536995 22.7615929,7.93536995 L22.7615929,7.93536995 Z" id="Base-Main-fordivsion" fill="url(#linearGradient-2)"></path>
                    </g>
                </g>
            </g>
        </g>
    </g>
</svg>