<svg xmlns="http://www.w3.org/2000/svg" xmlns:xlink="http://www.w3.org/1999/xlink" width="20" height="19" version="1.1" viewBox="0 0 20 19"><title>ico-storefront</title><desc>Created with Sketch.</desc><g id="Icons-and-Colors" fill="none" fill-rule="evenodd" stroke="none" stroke-width="1"><g id="Storefront" transform="translate(-2.000000, -3.000000)"><g id="ico-storefront" transform="translate(0.000000, 0.000000)"><rect id="icon-container" width="24" height="24" x="0" y="0" fill="#FFF" fill-opacity="0"/><g id="Stores" fill="#222F3E" fill-rule="nonzero" transform="translate(2.000000, 3.000000)"><path id="Shape" d="M17.8541667,2.85416667 L16.5833333,0.5625 C16.4375,0.3125 16.1875,0.166666667 15.8958333,0.166666667 L4.10416667,0.166666667 C3.8125,0.166666667 3.5625,0.3125 3.41666667,0.5625 L2.14583333,2.85416667 L0.291666667,6.20833333 C0.166666667,6.4375 0.125,6.70833333 0.1875,6.95833333 L0.1875,6.95833333 C0.270833333,7.3125 0.416666667,7.66666667 0.604166667,8 L0.604166667,17.8333333 C0.604166667,18.2708333 0.958333333,18.625 1.39583333,18.625 L4.47916667,18.625 C4.70833333,18.625 4.89583333,18.4375 4.89583333,18.2083333 L4.89583333,13.4583333 L6.89583333,13.4583333 L6.89583333,18.1666667 C6.89583333,18.3958333 7.08333333,18.5833333 7.3125,18.5833333 L18.625,18.5833333 C19.0625,18.5833333 19.4166667,18.2291667 19.4166667,17.7916667 L19.4166667,8 C19.6041667,7.6875 19.75,7.33333333 19.8333333,6.95833333 L19.8333333,6.95833333 C19.8958333,6.70833333 19.8541667,6.4375 19.7291667,6.22916667 L17.8541667,2.85416667 Z M4.3125,1.29166667 L15.6875,1.29166667 L18.1875,5.8125 L1.8125,5.8125 L4.3125,1.29166667 Z M12.375,6.95833333 C12.2916667,7.1875 12.1875,7.41666667 12.0208333,7.625 C11.5416667,8.27083333 10.7916667,8.64583333 10,8.64583333 C9.20833333,8.64583333 8.4375,8.27083333 7.97916667,7.625 C7.83333333,7.41666667 7.70833333,7.1875 7.625,6.95833333 L12.375,6.95833333 Z M1.375,6.95833333 L6.125,6.95833333 C6.04166667,7.1875 5.9375,7.41666667 5.77083333,7.625 C5.29166667,8.27083333 4.54166667,8.64583333 3.75,8.64583333 C2.95833333,8.64583333 2.1875,8.27083333 1.72916667,7.625 C1.58333333,7.41666667 1.45833333,7.1875 1.375,6.95833333 Z M18.25,17.4583333 L8.04166667,17.4583333 L8.04166667,13.1041667 C8.04166667,12.6666667 7.6875,12.3125 7.25,12.3125 L4.52083333,12.3125 C4.08333333,12.3125 3.72916667,12.6666667 3.72916667,13.1041667 L3.72916667,17.4583333 L1.72916667,17.4583333 L1.72916667,9.1875 C2.33333333,9.58333333 3.02083333,9.79166667 3.75,9.79166667 C4.91666667,9.79166667 6.02083333,9.22916667 6.70833333,8.29166667 C6.77083333,8.20833333 6.83333333,8.125 6.875,8.02083333 C6.9375,8.10416667 6.97916667,8.20833333 7.04166667,8.29166667 C7.72916667,9.22916667 8.83333333,9.79166667 10,9.79166667 C11.1666667,9.79166667 12.2708333,9.22916667 12.9583333,8.29166667 C13.0208333,8.20833333 13.0833333,8.125 13.125,8.02083333 C13.1875,8.10416667 13.2291667,8.20833333 13.2916667,8.29166667 C13.9791667,9.22916667 15.0833333,9.79166667 16.25,9.79166667 C16.9791667,9.79166667 17.6666667,9.58333333 18.25,9.1875 L18.25,17.4583333 Z M18.2708333,7.625 C17.7916667,8.27083333 17.0416667,8.64583333 16.25,8.64583333 C15.4583333,8.64583333 14.6875,8.27083333 14.2291667,7.625 C14.0833333,7.41666667 13.9583333,7.1875 13.875,6.95833333 L18.625,6.95833333 C18.5416667,7.1875 18.4166667,7.41666667 18.2708333,7.625 Z"/><path id="Shape" d="M15.2291667,12.1875 L12.9791667,12.1875 C12.3333333,12.1875 11.8125,12.7083333 11.8125,13.3541667 L11.8125,15 C11.8125,15.6458333 12.3333333,16.1666667 12.9791667,16.1666667 L15.2291667,16.1666667 C15.875,16.1666667 16.3958333,15.6458333 16.3958333,15 L16.3958333,13.3541667 C16.3958333,12.7083333 15.875,12.1875 15.2291667,12.1875 Z M15.25,15 C15.25,15.0208333 15.25,15.0208333 15.2291667,15.0208333 L12.9791667,15.0208333 C12.9583333,15.0208333 12.9583333,15.0208333 12.9583333,15 L12.9583333,13.3541667 C12.9583333,13.3333333 12.9583333,13.3333333 12.9791667,13.3333333 L15.2291667,13.3333333 C15.25,13.3333333 15.25,13.3333333 15.25,13.3541667 L15.25,15 L15.25,15 Z"/></g></g></g></g></svg>