<?xml version="1.0" encoding="UTF-8"?>
<svg width="20px" height="20px" viewBox="0 0 20 20" version="1.1" xmlns="http://www.w3.org/2000/svg" xmlns:xlink="http://www.w3.org/1999/xlink">
    <!-- Generator: Sketch 62 (91390) - https://sketch.com -->
    <title>ico-checkbox</title>
    <desc>Created with Sketch.</desc>
    <g id="Icons-and-Colors" stroke="none" stroke-width="1" fill="none" fill-rule="evenodd">
        <g id="checkbox" transform="translate(-2.000000, -2.000000)">
            <g id="ico-checkbox" transform="translate(0.000000, 0.000000)">
                <g>
                    <rect id="icon-container" fill-opacity="0" fill="#FFFFFF" x="0" y="0" width="24" height="24"></rect>
                    <g id="checkmark-circle" transform="translate(2.000000, 2.000000)" fill="#222F3E" fill-rule="nonzero">
                        <path d="M10,0.0625 C4.52083333,0.0625 0.0625,4.52083333 0.0625,10 C0.0625,15.4791667 4.52083333,19.9583333 10.0208333,19.9583333 C15.5,19.9583333 19.9791667,15.5 19.9791667,10 C19.9583333,4.52083333 15.4791667,0.0625 10,0.0625 Z M10,18.8125 C5.14583333,18.8125 1.1875,14.8541667 1.1875,10 C1.1875,5.14583333 5.14583333,1.20833333 10,1.20833333 C14.8541667,1.20833333 18.8125,5.16666667 18.8125,10.0208333 C18.8125,14.875 14.8541667,18.8125 10,18.8125 Z" id="Shape"></path>
                        <path d="M14.125,6.39583333 L8.0625,12.4583333 L5.875,10.2916667 C5.64583333,10.0625 5.29166667,10.0625 5.0625,10.2916667 C4.83333333,10.5208333 4.83333333,10.875 5.0625,11.1041667 L7.5,13.5416667 C7.64583333,13.6875 7.85416667,13.7708333 8.0625,13.7708333 C8.27083333,13.7708333 8.45833333,13.6875 8.625,13.5416667 L14.9375,7.22916667 C15.1666667,7 15.1666667,6.64583333 14.9375,6.41666667 C14.7083333,6.1875 14.3333333,6.1875 14.125,6.39583333 Z" id="Path"></path>
                    </g>
                </g>
            </g>
        </g>
    </g>
</svg>