<svg xmlns="http://www.w3.org/2000/svg" xmlns:xlink="http://www.w3.org/1999/xlink" width="15" height="20" version="1.1" viewBox="0 0 15 20"><title>ico-home</title><desc>Created with Sketch.</desc><g id="Icons-and-Colors" fill="none" fill-rule="evenodd" stroke="none" stroke-width="1"><g id="home" transform="translate(-4.000000, -2.000000)"><g id="ico-home" transform="translate(0.000000, 0.000000)"><rect id="icon-container" width="24" height="24" x="0" y="0" fill="#FFF" fill-opacity="0"/><g id="home" fill="#222F3E" fill-rule="nonzero" transform="translate(4.000000, 2.000000)"><path id="Shape" d="M14.125,19.8958333 L10.125,19.8958333 C9.5625,19.8958333 9.10416667,19.4375 9.10416667,18.875 L9.10416667,15.0416667 C9.10416667,14.6666667 8.79166667,14.3541667 8.41666667,14.3541667 L6.5625,14.3541667 C6.1875,14.3541667 5.875,14.6666667 5.875,15.0416667 L5.875,18.8541667 C5.875,19.4166667 5.41666667,19.875 4.85416667,19.875 L0.875,19.875 C0.4375,19.875 0.0833333333,19.5208333 0.0833333333,19.0833333 L0.0833333333,7.5 C0.0833333333,7.29166667 0.166666667,7.08333333 0.3125,6.9375 L6.9375,0.333333333 C7.25,0.0208333333 7.75,0.0208333333 8.0625,0.333333333 L14.6875,6.95833333 C14.8333333,7.10416667 14.9166667,7.3125 14.9166667,7.52083333 L14.9166667,19.1041667 C14.9375,19.5416667 14.5625,19.8958333 14.125,19.8958333 Z M10.25,18.75 L13.7708333,18.75 L13.7708333,7.66666667 L7.5,1.39583333 L1.22916667,7.64583333 L1.22916667,18.7291667 L4.75,18.7291667 L4.75,15.0416667 C4.75,14.0416667 5.5625,13.2083333 6.58333333,13.2083333 L8.4375,13.2083333 C9.4375,13.2083333 10.2708333,14.0208333 10.2708333,15.0416667 L10.2708333,18.75 L10.25,18.75 Z"/></g></g></g></g></svg>