<svg xmlns="http://www.w3.org/2000/svg" xmlns:xlink="http://www.w3.org/1999/xlink" width="20" height="20" version="1.1" viewBox="0 0 20 20"><title>ico-help</title><desc>Created with Sketch.</desc><g id="Icons-and-Colors" fill="none" fill-rule="evenodd" stroke="none" stroke-width="1"><g id="help" transform="translate(-2.000000, -2.000000)"><g id="ico-help"><g><rect id="icon-container" width="24" height="24" x="0" y="0" fill="#FFF" fill-opacity="0"/><g id="question-circle" fill="#222F3E" fill-rule="nonzero" transform="translate(2.000000, 2.000000)"><path id="Path" d="M10.3368421,4.44210526 C9.09473684,4.29473684 7.91578947,4.92631579 7.34736842,6.04210526 C7.2,6.33684211 7.30526316,6.67368421 7.6,6.82105263 C7.89473684,6.96842105 8.23157895,6.86315789 8.37894737,6.56842105 C8.73684211,5.89473684 9.45263158,5.49473684 10.2105263,5.57894737 C11.0315789,5.68421053 11.7052632,6.37894737 11.8105263,7.17894737 C11.8947368,7.95789474 11.4947368,8.69473684 10.8,9.03157895 C9.95789474,9.43157895 9.43157895,10.3157895 9.43157895,11.2842105 L9.43157895,13.7473684 C9.43157895,14.0631579 9.68421053,14.3368421 10.0210526,14.3368421 C10.3578947,14.3368421 10.6105263,14.0842105 10.6105263,13.7473684 L10.6105263,11.2842105 C10.6105263,10.7789474 10.9052632,10.2947368 11.3263158,10.0842105 C12.4631579,9.53684211 13.1157895,8.33684211 12.9894737,7.07368421 C12.7789474,5.72631579 11.6842105,4.61052632 10.3368421,4.44210526 Z"/><path id="Path" d="M9.97894737,15.3473684 C9.66315789,15.3473684 9.41052632,15.6 9.41052632,15.9157895 C9.41052632,16.2315789 9.66315789,16.4842105 9.97894737,16.4842105 C10.2947368,16.4842105 10.5473684,16.2315789 10.5473684,15.9157895 C10.5473684,15.6 10.2947368,15.3473684 9.97894737,15.3473684 Z"/><path id="Shape" d="M9.95789474,0.0210526316 C4.48421053,0.0210526316 0.0210526316,4.48421053 0.0210526316,9.95789474 C0.0210526316,15.4315789 4.48421053,19.8947368 9.95789474,19.8947368 C15.4315789,19.8947368 19.8947368,15.4315789 19.8947368,9.95789474 C19.8947368,4.46315789 15.4315789,0.0210526316 9.95789474,0.0210526316 Z M9.95789474,18.7368421 C5.11578947,18.7368421 1.17894737,14.8 1.17894737,9.95789474 C1.17894737,5.11578947 5.11578947,1.17894737 9.95789474,1.17894737 C14.8,1.17894737 18.7368421,5.11578947 18.7368421,9.95789474 C18.7368421,14.8 14.8,18.7368421 9.95789474,18.7368421 Z"/></g></g></g></g></g></svg>