<svg xmlns="http://www.w3.org/2000/svg" xmlns:xlink="http://www.w3.org/1999/xlink" width="20" height="18" version="1.1" viewBox="0 0 20 18"><title>ico-heart</title><desc>Created with Sketch.</desc><g id="Icons-and-Colors" fill="none" fill-rule="evenodd" stroke="none" stroke-width="1"><g id="Heart" transform="translate(-2.000000, -3.000000)"><g id="ico-heart"><g transform="translate(0.000000, -0.000000)"><rect id="Rectangle" width="24" height="24" x="0" y="0" fill="#FFF" fill-opacity="0"/><g id="heart" fill="#222F3E" fill-rule="nonzero" transform="translate(2.000000, 3.000000)"><path id="Shape" d="M18.244898,1.6122449 C17.2244898,0.591836735 15.877551,0.0408163265 14.4285714,0.0408163265 C12.9795918,0.0408163265 11.6122449,0.591836735 10.6122449,1.6122449 L10,2.2244898 L9.3877551,1.6122449 C8.36734694,0.632653061 6.97959184,0.0612244898 5.59183673,0.0612244898 C4.14285714,0.0612244898 2.79591837,0.612244898 1.7755102,1.6122449 C-0.346938776,3.71428571 -0.346938776,7.14285714 1.7755102,9.26530612 L5,12.4897959 L6.20408163,13.6938776 L6.24489796,13.7346939 L10.0612245,17.5510204 L13.877551,13.7346939 L17.3061224,10.2653061 L18.3061224,9.26530612 C19.3061224,8.26530612 19.877551,6.89795918 19.877551,5.44897959 C19.8163265,3.97959184 19.2653061,2.6122449 18.244898,1.6122449 Z M17.4489796,8.42857143 L16.4285714,9.44897959 L13.0204082,12.9183673 L10.0204082,15.9387755 L7.02040816,12.9183673 L6.97959184,12.877551 L5.7755102,11.6734694 L2.57142857,8.46938776 C0.897959184,6.79591837 0.897959184,4.08163265 2.57142857,2.40816327 C3.36734694,1.6122449 4.42857143,1.18367347 5.59183673,1.18367347 C6.69387755,1.18367347 7.79591837,1.63265306 8.6122449,2.40816327 L10.0204082,3.81632653 L11.4285714,2.40816327 C12.2244898,1.6122449 13.3061224,1.16326531 14.4489796,1.16326531 C15.5918367,1.16326531 16.6734694,1.6122449 17.4693878,2.40816327 C18.2653061,3.20408163 18.6938776,4.26530612 18.6938776,5.42857143 C18.6938776,6.57142857 18.244898,7.63265306 17.4489796,8.42857143 Z"/></g></g></g></g></g></svg>