<svg xmlns="http://www.w3.org/2000/svg" width="9" height="14" viewBox="0 0 9 14">
    <g fill="none" fill-rule="evenodd">
        <path fill="#FFF" fill-opacity="0" d="M0 0H16V16H0z" transform="translate(-3 -1)"/>
        <path fill="#637381" d="M9.116 7.609h-2.87c-1.101 0-2-.899-2-2 0-.537.203-1.044.58-1.42.377-.377.884-.58 1.42-.58h4.464c.218 0 .406-.174.406-.406 0-.232-.174-.406-.406-.406H8.32v-.956c0-.218-.174-.406-.391-.406-.218 0-.406.174-.406.406v.956H6.246c-.753 0-1.449.29-1.985.826-.522.536-.826 1.232-.826 1.986 0 1.55 1.26 2.797 2.797 2.797h2.884c1.101 0 2 .898 2 2 0 .536-.203 1.043-.58 1.42-.377.377-.884.58-1.42.58H4.652c-.217 0-.406.174-.406.406 0 .231.174.405.406.405h2.87v.957c0 .217.174.406.406.406.217 0 .39-.174.39-.406v-.957h.812c.754 0 1.45-.29 1.986-.826.522-.536.826-1.232.826-1.985-.014-1.55-1.275-2.797-2.826-2.797z" transform="translate(-3 -1)"/>
    </g>
</svg>
