<svg xmlns="http://www.w3.org/2000/svg" xmlns:xlink="http://www.w3.org/1999/xlink" width="20" height="20" version="1.1" viewBox="0 0 20 20"><title>ico-copy</title><desc>Created with Sketch.</desc><g id="Icons-and-Colors" fill="none" fill-rule="evenodd" stroke="none" stroke-width="1"><g id="Duplicate" transform="translate(-2.000000, -2.000000)"><g id="ico-copy"><g transform="translate(0.000000, -0.000000)"><rect id="Rectangle" width="24" height="24" x="0" y="0" fill="#FFF" fill-opacity="0"/><g id="copy" fill="#222F3E" fill-rule="nonzero" transform="translate(2.000000, 2.000000)"><path id="Shape" d="M19.0612245,0.0612244898 L9.30612245,0.0612244898 C8.87755102,0.0612244898 8.51020408,0.408163265 8.51020408,0.857142857 L8.51020408,4.55102041 L0.93877551,4.55102041 C0.510204082,4.55102041 0.142857143,4.89795918 0.142857143,5.34693878 L0.142857143,14.4285714 C0.142857143,14.4897959 0.163265306,14.5306122 0.204081633,14.5714286 L5.10204082,19.4489796 C5.14285714,19.4897959 5.18367347,19.5102041 5.24489796,19.5102041 L10.6326531,19.5102041 C11.0612245,19.5102041 11.4285714,19.1632653 11.4285714,18.7142857 L11.4285714,12.9387755 L13.4693878,14.9591837 C13.5102041,15 13.5510204,15.0204082 13.6122449,15.0204082 L19.0408163,15.0204082 C19.4693878,15.0204082 19.8163265,14.6734694 19.8163265,14.244898 L19.8163265,0.857142857 C19.8571429,0.428571429 19.4897959,0.0612244898 19.0612245,0.0612244898 Z M4.85714286,17.6122449 L2.08163265,14.8367347 L4.85714286,14.8367347 L4.85714286,17.6122449 L4.85714286,17.6122449 Z M10.3061224,18.4081633 L5.97959184,18.4081633 L5.97959184,14.5102041 C5.97959184,14.0816327 5.6122449,13.7346939 5.18367347,13.7346939 L1.28571429,13.7346939 L1.28571429,5.67346939 L10.3265306,5.67346939 L10.3265306,18.4081633 L10.3061224,18.4081633 Z M11.4285714,10.3673469 L13.2040816,10.3673469 L13.2040816,13.1020408 L11.4285714,11.3673469 L11.4285714,10.3673469 Z M18.7346939,13.877551 L14.3469388,13.877551 L14.3469388,10.0408163 C14.3469388,9.6122449 14,9.24489796 13.5714286,9.24489796 L11.4285714,9.24489796 L11.4285714,5.34693878 C11.4285714,4.91836735 11.0612245,4.55102041 10.6530612,4.55102041 L9.63265306,4.55102041 L9.63265306,1.18367347 L18.7142857,1.18367347 L18.7142857,13.877551 L18.7346939,13.877551 Z"/></g></g></g></g></g></svg>