<?xml version="1.0" encoding="UTF-8"?>
<svg width="20px" height="20px" viewBox="0 0 20 20" version="1.1" xmlns="http://www.w3.org/2000/svg" xmlns:xlink="http://www.w3.org/1999/xlink">
    <!-- Generator: Sketch 62 (91390) - https://sketch.com -->
    <title>ico-catalog</title>
    <desc>Created with Sketch.</desc>
    <g id="Icons-and-Colors" stroke="none" stroke-width="1" fill="none" fill-rule="evenodd">
        <g id="Catalog" transform="translate(-2.000000, -2.000000)">
            <g id="ico-catalog" transform="translate(0.000000, -0.000000)">
                <g>
                    <rect id="Rectangle" fill-opacity="0" fill="#FFFFFF" x="0" y="0" width="24" height="24"></rect>
                    <g id="grid-alt" transform="translate(2.000000, 2.000000)" fill="#222F3E" fill-rule="nonzero">
                        <path d="M1.47916667,8.41666667 L7.02083333,8.41666667 C7.77083333,8.41666667 8.375,7.8125 8.375,7.0625 L8.375,1.52083333 C8.375,0.770833333 7.77083333,0.166666667 7.02083333,0.166666667 L1.47916667,0.166666667 C0.729166667,0.166666667 0.104166667,0.770833333 0.104166667,1.52083333 L0.104166667,7.04166667 C0.104166667,7.79166667 0.729166667,8.41666667 1.47916667,8.41666667 Z M1.25,1.52083333 C1.25,1.39583333 1.35416667,1.3125 1.47916667,1.3125 L7.02083333,1.3125 C7.14583333,1.3125 7.22916667,1.41666667 7.22916667,1.52083333 L7.22916667,7.0625 C7.22916667,7.14583333 7.14583333,7.27083333 7.02083333,7.27083333 L1.47916667,7.27083333 C1.35416667,7.27083333 1.25,7.16666667 1.25,7.04166667 L1.25,1.52083333 Z" id="Shape"></path>
                        <path d="M12.9375,8.41666667 L18.4583333,8.41666667 C19.1875,8.41666667 19.8125,7.83333333 19.8333333,7.10416667 L19.8333333,1.54166667 C19.8333333,0.791666667 19.2291667,0.1875 18.4791667,0.1875 L12.9375,0.1875 C12.1875,0.1875 11.5833333,0.791666667 11.5833333,1.54166667 L11.5833333,7.0625 C11.5625,7.79166667 12.1875,8.41666667 12.9375,8.41666667 Z M12.7083333,1.52083333 C12.7083333,1.39583333 12.8125,1.3125 12.9166667,1.3125 L18.4583333,1.3125 C18.5833333,1.3125 18.6666667,1.41666667 18.6666667,1.52083333 L18.6666667,7.04166667 C18.6458333,7.14583333 18.5625,7.25 18.4166667,7.25 L12.9375,7.25 C12.8125,7.25 12.7291667,7.14583333 12.7291667,7.02083333 L12.7291667,1.52083333 L12.7083333,1.52083333 Z" id="Shape"></path>
                        <path d="M7.0625,11.6041667 L1.52083333,11.6041667 C0.770833333,11.6041667 0.166666667,12.2083333 0.166666667,12.9583333 L0.166666667,18.4791667 C0.166666667,19.2291667 0.770833333,19.8333333 1.52083333,19.8333333 L7.04166667,19.8333333 C7.77083333,19.8333333 8.39583333,19.25 8.41666667,18.5208333 L8.41666667,12.9583333 C8.4375,12.2083333 7.8125,11.6041667 7.0625,11.6041667 Z M7.29166667,18.4791667 C7.27083333,18.5833333 7.1875,18.6875 7.04166667,18.6875 L1.52083333,18.6875 C1.39583333,18.6875 1.3125,18.5833333 1.3125,18.4791667 L1.3125,12.9583333 C1.3125,12.8333333 1.41666667,12.75 1.52083333,12.75 L7.0625,12.75 C7.1875,12.75 7.29166667,12.8541667 7.29166667,12.9583333 L7.29166667,18.4791667 Z" id="Shape"></path>
                        <path d="M18.5,11.6041667 L12.9583333,11.6041667 C12.2083333,11.6041667 11.6041667,12.2083333 11.6041667,12.9583333 L11.6041667,18.4791667 C11.6041667,19.2291667 12.2083333,19.8333333 12.9583333,19.8333333 L18.5,19.8333333 C19.2083333,19.8333333 19.8333333,19.25 19.8541667,18.5208333 L19.8541667,12.9583333 C19.8541667,12.2083333 19.25,11.6041667 18.5,11.6041667 Z M18.7083333,18.4791667 C18.6875,18.5833333 18.5833333,18.6875 18.5,18.6875 L12.9583333,18.6875 C12.8333333,18.6875 12.75,18.5833333 12.75,18.4791667 L12.75,12.9583333 C12.75,12.8333333 12.8541667,12.75 12.9583333,12.75 L18.5,12.75 C18.625,12.75 18.7083333,12.8541667 18.7083333,12.9583333 L18.7083333,18.4791667 L18.7083333,18.4791667 Z" id="Shape"></path>
                    </g>
                </g>
            </g>
        </g>
    </g>
</svg>