<?xml version="1.0" encoding="UTF-8"?>
<svg width="20px" height="20px" viewBox="0 0 20 20" version="1.1" xmlns="http://www.w3.org/2000/svg" xmlns:xlink="http://www.w3.org/1999/xlink">
    <!-- Generator: Sketch 62 (91390) - https://sketch.com -->
    <title>ico-upload</title>
    <desc>Created with Sketch.</desc>
    <g id="Icons-and-Colors" stroke="none" stroke-width="1" fill="none" fill-rule="evenodd">
        <g id="Upload" transform="translate(-2.000000, -2.000000)">
            <g id="ico-upload" transform="translate(0.000000, -0.000000)">
                <g>
                    <rect id="Rectangle" fill-opacity="0" fill="#FFFFFF" x="0" y="0" width="24" height="24"></rect>
                    <g id="upload" transform="translate(2.000000, 2.000000)" fill="#222F3E" fill-rule="nonzero">
                        <path d="M19.2340426,13.1914894 C18.9148936,13.1914894 18.6382979,13.4468085 18.6382979,13.787234 L18.6382979,18.6808511 L1.36170213,18.6808511 L1.36170213,13.787234 C1.36170213,13.4680851 1.10638298,13.1914894 0.765957447,13.1914894 C0.425531915,13.1914894 0.170212766,13.4468085 0.170212766,13.787234 L0.170212766,18.9787234 C0.170212766,19.4680851 0.617021277,19.8510638 1.19148936,19.8510638 L18.787234,19.8510638 C19.3617021,19.8510638 19.8085106,19.4680851 19.8085106,18.9787234 L19.8085106,13.787234 C19.8085106,13.4680851 19.5531915,13.1914894 19.2340426,13.1914894 Z" id="Path"></path>
                        <path d="M6.87234043,4.70212766 C7.0212766,4.70212766 7.17021277,4.63829787 7.27659574,4.53191489 L9.40425532,2.40425532 L9.40425532,14.2978723 C9.40425532,14.6170213 9.65957447,14.893617 10,14.893617 C10.3404255,14.893617 10.5957447,14.6382979 10.5957447,14.2978723 L10.5957447,2.40425532 L12.7021277,4.53191489 C12.9361702,4.76595745 13.2978723,4.76595745 13.5319149,4.53191489 C13.7659574,4.29787234 13.7659574,3.93617021 13.5319149,3.70212766 L10.0212766,0.14893617 L6.46808511,3.70212766 C6.23404255,3.93617021 6.23404255,4.29787234 6.46808511,4.53191489 C6.57446809,4.63829787 6.72340426,4.70212766 6.87234043,4.70212766 Z" id="Path"></path>
                    </g>
                </g>
            </g>
        </g>
    </g>
</svg>