<svg xmlns="http://www.w3.org/2000/svg" xmlns:xlink="http://www.w3.org/1999/xlink" width="20" height="18" version="1.1" viewBox="0 0 20 18"><title>ico-products</title><desc>Created with Sketch.</desc><g id="Icons-and-Colors" fill="none" fill-rule="evenodd" stroke="none" stroke-width="1"><g id="Product" transform="translate(-2.000000, -3.000000)"><g id="ico-products"><g transform="translate(0.000000, -0.000000)"><rect id="Rectangle" width="24" height="24" x="0" y="0" fill="#FFF" fill-opacity="0"/><path id="Shape" fill="#000" fill-rule="nonzero" d="M17.4285714,20.122449 L6.57142857,20.122449 C6.12244898,20.122449 5.73469388,19.755102 5.71428571,19.3061224 L5.16326531,9.06122449 L3.18367347,9.06122449 C2.73469388,9.06122449 2.34693878,8.69387755 2.32653061,8.26530612 L2.06122449,3.91836735 C2.06122449,3.42857143 2.42857143,3.04081633 2.91836735,3.04081633 L9.10204082,3.04081633 C9.51020408,3.04081633 9.85714286,3.34693878 9.93877551,3.75510204 L9.93877551,3.81632653 C10.0408163,4.83673469 10.9387755,5.65306122 11.9795918,5.65306122 C13.0204082,5.65306122 13.8979592,4.87755102 14.0204082,3.83673469 C14.0408163,3.40816327 14.4285714,3.06122449 14.877551,3.06122449 L21.0408163,3.06122449 C21.5306122,3.06122449 21.8979592,3.44897959 21.8979592,3.93877551 L21.8979592,3.97959184 L21.6326531,8.28571429 C21.6122449,8.71428571 21.2244898,9.08163265 20.7755102,9.08163265 L18.7959184,9.08163265 L18.244898,19.3265306 C18.2857143,19.755102 17.8979592,20.122449 17.4285714,20.122449 Z M6.81632653,19 L17.1836735,19 L17.7346939,8.75510204 C17.755102,8.30612245 18.1428571,7.93877551 18.5918367,7.93877551 L20.5714286,7.93877551 L20.7959184,4.14285714 L15.1428571,4.14285714 C14.8571429,5.65306122 13.5510204,6.75510204 12.0204082,6.75510204 C10.4693878,6.75510204 9.14285714,5.63265306 8.87755102,4.14285714 L3.20408163,4.14285714 L3.42857143,7.93877551 L5.40816327,7.93877551 C5.81632653,7.93877551 6.16326531,8.24489796 6.24489796,8.65306122 L6.24489796,8.73469388 L6.81632653,19 Z"/></g></g></g></g></svg>