<svg xmlns="http://www.w3.org/2000/svg" xmlns:xlink="http://www.w3.org/1999/xlink" width="20" height="21" version="1.1" viewBox="0 0 20 21"><title>ico-settings</title><desc>Created with Sketch.</desc><g id="Icons-and-Colors" fill="none" fill-rule="evenodd" stroke="none" stroke-width="1"><g id="Settings" transform="translate(-2.000000, -2.000000)"><g id="ico-settings"><g><rect id="icon-container" width="24" height="24" x="0" y="0" fill="#FFF" fill-opacity="0"/><g id="cog" fill="#222F3E" fill-rule="nonzero" transform="translate(2.000000, 2.000000)"><path id="Shape" d="M13.787234,10 C13.787234,9.93617021 13.787234,9.89361702 13.7659574,9.82978723 C13.7659574,9.76595745 13.7446809,9.70212766 13.7446809,9.63829787 C13.7446809,9.57446809 13.7234043,9.4893617 13.7021277,9.42553191 C13.7021277,9.38297872 13.6808511,9.36170213 13.6808511,9.31914894 C13.6808511,9.29787234 13.6808511,9.29787234 13.6595745,9.27659574 C13.6382979,9.21276596 13.6170213,9.12765957 13.5957447,9.06382979 C13.5744681,9.0212766 13.5744681,8.95744681 13.5531915,8.91489362 C13.5319149,8.87234043 13.5106383,8.80851064 13.4893617,8.76595745 C13.4680851,8.70212766 13.4255319,8.63829787 13.4042553,8.55319149 C13.3829787,8.5106383 13.3617021,8.4893617 13.3617021,8.44680851 C13.3191489,8.36170213 13.2765957,8.27659574 13.2340426,8.21276596 C13.2340426,8.21276596 13.2340426,8.19148936 13.212766,8.19148936 C13.1914894,8.17021277 13.1914894,8.14893617 13.1702128,8.14893617 C13.1276596,8.06382979 13.0638298,8 13.0212766,7.91489362 C13,7.87234043 12.9574468,7.85106383 12.9361702,7.80851064 C12.893617,7.74468085 12.8510638,7.70212766 12.787234,7.63829787 C12.7446809,7.59574468 12.6808511,7.53191489 12.6382979,7.4893617 C12.6170213,7.46808511 12.5744681,7.42553191 12.5531915,7.40425532 C12.4893617,7.34042553 12.4042553,7.27659574 12.3191489,7.21276596 C12.2978723,7.21276596 12.2978723,7.19148936 12.2765957,7.19148936 C12.1914894,7.12765957 12.0851064,7.04255319 11.9787234,7 C11.9787234,7 11.9787234,7 11.9787234,7 C11.9787234,7 11.9787234,7 11.9787234,7 C11.8723404,6.93617021 11.787234,6.87234043 11.6808511,6.82978723 C11.6808511,6.82978723 11.6595745,6.82978723 11.6595745,6.80851064 C11.5744681,6.76595745 11.4893617,6.72340426 11.3829787,6.68085106 C11.3617021,6.65957447 11.3191489,6.65957447 11.2978723,6.63829787 C11.2340426,6.61702128 11.1489362,6.59574468 11.0638298,6.57446809 C11.0212766,6.55319149 10.9787234,6.55319149 10.9148936,6.53191489 C10.893617,6.53191489 10.8723404,6.5106383 10.8510638,6.5106383 C10.8085106,6.4893617 10.7446809,6.4893617 10.7021277,6.4893617 C10.6595745,6.4893617 10.5957447,6.46808511 10.5531915,6.46808511 C10.4680851,6.44680851 10.3829787,6.44680851 10.2978723,6.44680851 C10.2765957,6.44680851 10.2340426,6.44680851 10.212766,6.44680851 C10.106383,6.44680851 9.9787234,6.44680851 9.87234043,6.44680851 C9.87234043,6.44680851 9.87234043,6.44680851 9.87234043,6.44680851 C9.21276596,6.46808511 8.57446809,6.65957447 8.0212766,7 C7.21276596,7.5106383 6.61702128,8.27659574 6.36170213,9.21276596 C6.36170213,9.23404255 6.36170213,9.23404255 6.36170213,9.25531915 C6.36170213,9.29787234 6.34042553,9.31914894 6.34042553,9.36170213 C6.31914894,9.42553191 6.31914894,9.4893617 6.29787234,9.55319149 C6.29787234,9.57446809 6.29787234,9.59574468 6.27659574,9.61702128 C6.25531915,9.72340426 6.25531915,9.80851064 6.23404255,9.91489362 C6.23404255,9.93617021 6.23404255,9.95744681 6.23404255,9.9787234 C6.23404255,10.0851064 6.23404255,10.1914894 6.23404255,10.2978723 C6.23404255,10.3191489 6.23404255,10.3404255 6.23404255,10.3404255 C6.23404255,10.4468085 6.25531915,10.5744681 6.25531915,10.6808511 C6.25531915,10.6808511 6.25531915,10.7021277 6.25531915,10.7021277 C6.27659574,10.8297872 6.29787234,10.9361702 6.31914894,11.0638298 C6.31914894,11.0638298 6.31914894,11.0851064 6.31914894,11.0851064 C6.31914894,11.0851064 6.31914894,11.0851064 6.31914894,11.0851064 C6.34042553,11.1702128 6.36170213,11.2553191 6.38297872,11.3404255 C6.38297872,11.3829787 6.40425532,11.4042553 6.42553191,11.4468085 C6.44680851,11.5106383 6.46808511,11.5744681 6.4893617,11.6382979 C6.5106383,11.7021277 6.53191489,11.7446809 6.55319149,11.787234 C6.57446809,11.8297872 6.59574468,11.8723404 6.61702128,11.9148936 C6.65957447,11.9787234 6.68085106,12.0425532 6.72340426,12.1276596 C6.74468085,12.1489362 6.74468085,12.1702128 6.76595745,12.1914894 C6.76595745,12.1914894 6.78723404,12.212766 6.78723404,12.212766 C6.82978723,12.2978723 6.89361702,12.3617021 6.93617021,12.4468085 C6.95744681,12.4680851 6.95744681,12.4893617 6.9787234,12.5106383 C7.04255319,12.5957447 7.12765957,12.6808511 7.19148936,12.7659574 C7.23404255,12.8085106 7.27659574,12.8510638 7.31914894,12.893617 C7.36170213,12.9148936 7.38297872,12.9574468 7.42553191,12.9787234 C7.4893617,13.0212766 7.53191489,13.0638298 7.59574468,13.1276596 C7.61702128,13.1489362 7.65957447,13.1702128 7.68085106,13.1914894 C7.74468085,13.2340426 7.80851064,13.2765957 7.85106383,13.3191489 C7.89361702,13.3404255 7.91489362,13.3617021 7.95744681,13.3829787 C8.0212766,13.4255319 8.08510638,13.4468085 8.12765957,13.4893617 C8.17021277,13.5106383 8.23404255,13.5319149 8.27659574,13.5744681 C8.31914894,13.5957447 8.36170213,13.6170213 8.42553191,13.6382979 C8.63829787,13.7446809 8.87234043,13.8085106 9.10638298,13.8723404 C9.10638298,13.8723404 9.10638298,13.8723404 9.10638298,13.8723404 C9.10638298,13.8723404 9.10638298,13.8723404 9.10638298,13.8723404 C9.23404255,13.9148936 9.38297872,13.9361702 9.53191489,13.9361702 C9.53191489,13.9361702 9.53191489,13.9361702 9.55319149,13.9361702 C9.70212766,13.9574468 9.82978723,13.9574468 9.9787234,13.9574468 C10.2553191,13.9574468 10.5531915,13.9148936 10.8510638,13.8510638 C11.8085106,13.6170213 12.6170213,13.0425532 13.1489362,12.2340426 C13.1489362,12.2340426 13.1489362,12.2340426 13.1489362,12.2340426 C13.1702128,12.212766 13.1702128,12.1914894 13.1914894,12.1702128 C13.2340426,12.106383 13.2553191,12.0638298 13.2765957,12 C13.2978723,11.9787234 13.2978723,11.9574468 13.3191489,11.9361702 C13.3617021,11.8510638 13.4042553,11.787234 13.4255319,11.7021277 C13.4255319,11.6808511 13.4468085,11.6595745 13.4468085,11.6382979 C13.4893617,11.5531915 13.5106383,11.4468085 13.5531915,11.3617021 C13.5531915,11.3617021 13.5531915,11.3617021 13.5531915,11.3404255 C13.6595745,11 13.7234043,10.6595745 13.7446809,10.2978723 C13.7446809,10.2765957 13.7446809,10.2553191 13.7446809,10.212766 C13.787234,10.1914894 13.787234,10.106383 13.787234,10 Z M12.6170213,10.2978723 C12.6170213,10.4680851 12.5957447,10.6382979 12.5531915,10.8085106 C12.4893617,11.0638298 12.4042553,11.2978723 12.2765957,11.5106383 C12.2765957,11.5106383 12.2765957,11.5319149 12.2553191,11.5319149 C12.212766,11.5957447 12.1702128,11.6595745 12.1276596,11.7234043 C12.1276596,11.7234043 12.1276596,11.7446809 12.106383,11.7446809 C11.9148936,12.0212766 11.6595745,12.2553191 11.3617021,12.4255319 C11.1489362,12.5531915 10.9148936,12.6595745 10.6595745,12.7234043 C10.6595745,12.7234043 10.6595745,12.7234043 10.6595745,12.7234043 C10.5957447,12.7446809 10.5106383,12.7659574 10.4255319,12.7659574 C10.4255319,12.7659574 10.4042553,12.7659574 10.4042553,12.7659574 C10.3191489,12.787234 10.2553191,12.787234 10.1702128,12.787234 C10.1702128,12.787234 10.1489362,12.787234 10.1489362,12.787234 C9.89361702,12.8085106 9.63829787,12.787234 9.38297872,12.7234043 C9.29787234,12.7021277 9.23404255,12.6808511 9.14893617,12.6595745 C9.14893617,12.6595745 9.12765957,12.6595745 9.12765957,12.6595745 C9.06382979,12.6382979 9,12.6170213 8.95744681,12.5957447 C8.93617021,12.5744681 8.91489362,12.5744681 8.87234043,12.5531915 C8.82978723,12.5319149 8.78723404,12.5106383 8.74468085,12.4893617 C8.70212766,12.4680851 8.65957447,12.4468085 8.63829787,12.4255319 C8.61702128,12.4042553 8.57446809,12.3829787 8.55319149,12.3829787 C8.5106383,12.3617021 8.46808511,12.3191489 8.42553191,12.2978723 C8.40425532,12.2765957 8.38297872,12.2553191 8.36170213,12.2553191 C8.31914894,12.212766 8.27659574,12.1914894 8.23404255,12.1489362 C8.21276596,12.1276596 8.19148936,12.106383 8.17021277,12.0851064 C8.12765957,12.0425532 8.10638298,12.0212766 8.06382979,11.9787234 C8.04255319,11.9574468 8,11.9148936 7.9787234,11.8723404 C7.95744681,11.8510638 7.93617021,11.8085106 7.89361702,11.787234 C7.87234043,11.7446809 7.82978723,11.7021277 7.80851064,11.6595745 C7.78723404,11.6382979 7.76595745,11.5957447 7.74468085,11.5744681 C7.72340426,11.5319149 7.70212766,11.4893617 7.68085106,11.4468085 C7.65957447,11.4042553 7.63829787,11.3617021 7.61702128,11.3404255 C7.59574468,11.3191489 7.59574468,11.2978723 7.57446809,11.2553191 C7.55319149,11.1914894 7.53191489,11.1489362 7.5106383,11.0851064 C7.5106383,11.0851064 7.5106383,11.0638298 7.5106383,11.0638298 C7.4893617,10.9787234 7.46808511,10.9148936 7.44680851,10.8297872 C7.44680851,10.8297872 7.44680851,10.8297872 7.44680851,10.8297872 C7.44680851,10.7234043 7.44680851,10.6382979 7.42553191,10.5531915 C7.42553191,10.5531915 7.42553191,10.5531915 7.42553191,10.5531915 C7.40425532,10.4680851 7.40425532,10.3829787 7.40425532,10.2978723 C7.40425532,10.2978723 7.40425532,10.2978723 7.40425532,10.2765957 C7.40425532,10.1914894 7.40425532,10.106383 7.40425532,10.0425532 C7.40425532,10.0425532 7.40425532,10.0212766 7.40425532,10.0212766 C7.40425532,9.93617021 7.42553191,9.87234043 7.42553191,9.78723404 C7.42553191,9.78723404 7.42553191,9.76595745 7.42553191,9.76595745 C7.59574468,8.76595745 8.34042553,7.91489362 9.40425532,7.68085106 C9.63829787,7.61702128 9.89361702,7.59574468 10.1276596,7.61702128 C10.1489362,7.61702128 10.1914894,7.61702128 10.212766,7.61702128 C10.2765957,7.61702128 10.3191489,7.63829787 10.3829787,7.63829787 C10.4255319,7.63829787 10.4680851,7.65957447 10.5106383,7.65957447 C10.5531915,7.65957447 10.6170213,7.68085106 10.6595745,7.70212766 C10.6808511,7.70212766 10.7021277,7.72340426 10.7234043,7.72340426 C10.787234,7.74468085 10.8510638,7.76595745 10.9148936,7.78723404 C10.9148936,7.78723404 10.9361702,7.78723404 10.9361702,7.80851064 C11.0851064,7.87234043 11.2340426,7.93617021 11.3829787,8.0212766 C11.4468085,8.06382979 11.5319149,8.10638298 11.5957447,8.17021277 C11.5957447,8.17021277 11.5957447,8.17021277 11.5957447,8.17021277 C11.6595745,8.21276596 11.7234043,8.25531915 11.7659574,8.31914894 C11.787234,8.34042553 11.8085106,8.36170213 11.8297872,8.36170213 C11.8723404,8.40425532 11.9148936,8.44680851 11.9361702,8.46808511 C11.9574468,8.5106383 12,8.53191489 12.0212766,8.57446809 C12.0425532,8.59574468 12.0638298,8.61702128 12.0851064,8.65957447 C12.1276596,8.70212766 12.1489362,8.76595745 12.1914894,8.80851064 C12.212766,8.82978723 12.212766,8.85106383 12.2340426,8.87234043 C12.2765957,8.93617021 12.2978723,8.9787234 12.3191489,9.04255319 C12.3404255,9.06382979 12.3404255,9.08510638 12.3617021,9.10638298 C12.3829787,9.14893617 12.4042553,9.19148936 12.4255319,9.25531915 C12.4468085,9.29787234 12.4468085,9.31914894 12.4680851,9.36170213 C12.4893617,9.40425532 12.4893617,9.44680851 12.5106383,9.46808511 C12.5319149,9.5106383 12.5319149,9.55319149 12.5531915,9.61702128 C12.5531915,9.65957447 12.5744681,9.68085106 12.5744681,9.72340426 C12.5744681,9.76595745 12.5957447,9.80851064 12.5957447,9.85106383 C12.5957447,9.89361702 12.6170213,9.95744681 12.6170213,10 C12.6170213,10.0212766 12.6170213,10.0638298 12.6170213,10.0851064 C12.6170213,10.1276596 12.6170213,10.212766 12.6170213,10.2978723 C12.6170213,10.2978723 12.6170213,10.2978723 12.6170213,10.2978723 Z"/><path id="Shape" d="M19.3829787,12.5531915 L17.4255319,11.4468085 C17.4893617,11 17.5319149,10.5957447 17.5319149,10.2340426 C17.5319149,9.80851064 17.4893617,9.38297872 17.4255319,9 L19.4042553,7.87234043 C19.5957447,7.76595745 19.7234043,7.59574468 19.787234,7.38297872 C19.8510638,7.17021277 19.8085106,6.95744681 19.7021277,6.76595745 L17.8510638,3.55319149 C17.6382979,3.17021277 17.1489362,3.04255319 16.7659574,3.25531915 L14.787234,4.38297872 C14.1702128,3.87234043 13.4468085,3.46808511 12.6808511,3.17021277 L12.6808511,0.893617021 C12.6808511,0.446808511 12.3191489,0.085106383 11.8723404,0.085106383 L8.17021277,0.085106383 C7.72340426,0.085106383 7.36170213,0.446808511 7.36170213,0.893617021 L7.36170213,3.19148936 C6.57446809,3.4893617 5.87234043,3.91489362 5.25531915,4.40425532 L3.27659574,3.27659574 C2.89361702,3.06382979 2.40425532,3.19148936 2.19148936,3.57446809 L0.319148936,6.78723404 C0.212765957,6.9787234 0.191489362,7.19148936 0.234042553,7.40425532 C0.29787234,7.61702128 0.425531915,7.78723404 0.617021277,7.89361702 L2.59574468,9 C2.53191489,9.36170213 2.4893617,9.78723404 2.4893617,10.212766 C2.4893617,10.6170213 2.5106383,11.0425532 2.57446809,11.4255319 L0.574468085,12.5744681 C0.382978723,12.6808511 0.255319149,12.8510638 0.191489362,13.0638298 C0.127659574,13.2765957 0.170212766,13.4893617 0.276595745,13.6595745 L2.12765957,16.8723404 C2.34042553,17.2553191 2.82978723,17.3829787 3.21276596,17.1702128 L5.19148936,16.0425532 C5.80851064,16.5531915 6.53191489,16.9574468 7.29787234,17.2553191 L7.29787234,19.5319149 C7.29787234,19.9787234 7.65957447,20.3404255 8.10638298,20.3404255 L11.8085106,20.3404255 C12.2553191,20.3404255 12.6170213,19.9787234 12.6170213,19.5319149 L12.6170213,17.2340426 C13.4042553,16.9361702 14.106383,16.5106383 14.7234043,16.0212766 L16.7021277,17.1489362 C17.0851064,17.3617021 17.5744681,17.2340426 17.787234,16.8510638 L19.6382979,13.6382979 C19.7446809,13.4468085 19.7659574,13.2340426 19.7234043,13.0212766 C19.6808511,12.8085106 19.5744681,12.6595745 19.3829787,12.5531915 Z M17,15.9574468 L14.5957447,14.5744681 L14.2765957,14.8723404 C13.6170213,15.4893617 12.787234,15.9787234 11.8723404,16.2765957 L11.4680851,16.4042553 L11.4680851,19.1702128 L8.5106383,19.1702128 L8.5106383,16.4255319 L8.10638298,16.2978723 C7.19148936,16 6.36170213,15.5106383 5.70212766,14.893617 L5.38297872,14.5957447 L2.9787234,15.9787234 L1.4893617,13.4042553 L3.87234043,12.0425532 L3.78723404,11.6382979 C3.70212766,11.1914894 3.65957447,10.7234043 3.65957447,10.2340426 C3.65957447,9.72340426 3.70212766,9.25531915 3.80851064,8.85106383 L3.91489362,8.42553191 L1.5106383,7.06382979 L3,4.46808511 L5.40425532,5.85106383 L5.72340426,5.55319149 C6.38297872,4.93617021 7.21276596,4.44680851 8.12765957,4.14893617 L8.53191489,4.0212766 L8.53191489,1.25531915 L11.4893617,1.25531915 L11.4893617,4 L11.893617,4.12765957 C12.8085106,4.42553191 13.6382979,4.91489362 14.2978723,5.53191489 L14.6170213,5.82978723 L17.0212766,4.44680851 L18.5106383,7.0212766 L16.106383,8.40425532 L16.212766,8.82978723 C16.3191489,9.23404255 16.3617021,9.70212766 16.3617021,10.212766 C16.3617021,10.6170213 16.3191489,11.0638298 16.1914894,11.6170213 L16.106383,12.0212766 L18.4680851,13.3617021 L17,15.9574468 Z"/></g></g></g></g></g></svg>