<?xml version="1.0" encoding="UTF-8"?>
<svg width="18px" height="20px" viewBox="0 0 18 20" version="1.1" xmlns="http://www.w3.org/2000/svg" xmlns:xlink="http://www.w3.org/1999/xlink">
    <!-- Generator: Sketch 62 (91390) - https://sketch.com -->
    <title>ico-filter</title>
    <desc>Created with Sketch.</desc>
    <g id="Icons-and-Colors" stroke="none" stroke-width="1" fill="none" fill-rule="evenodd">
        <g id="Funnel" transform="translate(-3.000000, -2.000000)">
            <g id="ico-filter" transform="translate(0.000000, -0.000000)">
                <g>
                    <rect id="Rectangle" fill-opacity="0" fill="#FFFFFF" x="0" y="0" width="24" height="24"></rect>
                    <g id="funnel" transform="translate(3.000000, 2.000000)" fill="#222F3E" fill-rule="nonzero">
                        <path d="M6.45833333,19.8541667 C6.29166667,19.8541667 6.14583333,19.8125 6,19.7291667 C5.72916667,19.5625 5.58333333,19.2916667 5.58333333,18.9791667 L5.58333333,8.0625 L0.208333333,1.5625 C2.42861287e-17,1.27083333 -0.0416666667,0.916666667 0.125,0.625 C0.270833333,0.333333333 0.583333333,0.145833333 0.9375,0.145833333 L16.1875,0.145833333 C16.5416667,0.145833333 16.8541667,0.354166667 17,0.6875 C17.1458333,1 17.0833333,1.35416667 16.875,1.60416667 L11.5625,8.02083333 L11.5625,16.1875 C11.5625,16.3541667 11.5208333,16.6041667 11.2708333,16.8333333 L11.2291667,16.875 L11.1875,16.9166667 L6.91666667,19.7291667 C6.77083333,19.8125 6.625,19.8541667 6.45833333,19.8541667 Z M6.52083333,7.41666667 C6.64583333,7.5625 6.70833333,7.8125 6.70833333,7.97916667 L6.70833333,18.5 L10.4166667,16.0625 L10.4166667,7.97916667 C10.4166667,7.83333333 10.4166667,7.60416667 10.625,7.375 L15.625,1.29166667 L1.47916667,1.29166667 L6.52083333,7.41666667 L6.52083333,7.41666667 Z M5.625,8.125 C5.625,8.125 5.64583333,8.14583333 5.64583333,8.16666667 L5.625,8.125 Z" id="Shape"></path>
                    </g>
                </g>
            </g>
        </g>
    </g>
</svg>