<svg xmlns="http://www.w3.org/2000/svg" xmlns:xlink="http://www.w3.org/1999/xlink" width="16" height="18" version="1.1" viewBox="0 0 16 18"><title>ico-cart</title><desc>Created with Sketch.</desc><g id="Icons-and-Colors" fill="none" fill-rule="evenodd" stroke="none" stroke-width="1"><g id="cart" transform="translate(-4.000000, -3.000000)"><g id="ico-cart" transform="translate(0.000000, 0.000000)"><rect id="icon-container" width="24" height="24" x="0" y="0" fill="#FFF" fill-opacity="0"/><path id="Shape" fill="#222F3E" fill-rule="nonzero" d="M19.3818182,3.09090909 L17.9272727,3.09090909 C17.5818182,3.09090909 17.2909091,3.34545455 17.2545455,3.70909091 L16.9090909,7.16363636 L4.98181818,7.16363636 C4.70909091,7.16363636 4.47272727,7.29090909 4.29090909,7.49090909 C4.12727273,7.70909091 4.07272727,7.98181818 4.14545455,8.23636364 L6.09090909,15.8545455 C6.18181818,16.2363636 6.52727273,16.5090909 6.92727273,16.5090909 L16.1818182,16.5090909 C16.2363636,16.5090909 16.3090909,16.5090909 16.3636364,16.4909091 C16.4,16.4909091 16.4181818,16.5090909 16.4545455,16.5090909 C16.4727273,16.5090909 16.4909091,16.5090909 16.5090909,16.5090909 C16.7636364,16.5090909 16.9818182,16.3090909 17,16.0545455 L17.0363636,15.7454545 C17.0363636,15.7454545 17.0363636,15.7454545 17.0363636,15.7454545 L17.9272727,7.18181818 L17.9090909,7.18181818 L18.2181818,4.09090909 L19.3818182,4.09090909 C19.6545455,4.09090909 19.8909091,3.87272727 19.8909091,3.58181818 C19.8909091,3.29090909 19.6727273,3.09090909 19.3818182,3.09090909 Z M5.14545455,8.16363636 L16.8,8.16363636 L16.0545455,15.5090909 L7.03636364,15.5090909 L5.14545455,8.16363636 Z"/><circle id="Oval" cx="8.582" cy="18.891" r="1.455" fill="#222F3E" fill-rule="nonzero"/><circle id="Oval" cx="14.582" cy="18.891" r="1.455" fill="#222F3E" fill-rule="nonzero"/></g></g></g></svg>