<svg xmlns="http://www.w3.org/2000/svg" xmlns:xlink="http://www.w3.org/1999/xlink" width="20" height="20" version="1.1" viewBox="0 0 20 20"><title>ico-ruler</title><desc>Created with Sketch.</desc><g id="Icons-and-Colors" fill="none" fill-rule="evenodd" stroke="none" stroke-width="1"><g id="Ruler" transform="translate(-2.000000, -2.000000)"><g id="ico-ruler"><g transform="translate(0.000000, -0.000000)"><rect id="Rectangle" width="24" height="24" x="0" y="0" fill="#FFF" fill-opacity="0"/><g id="ruler-alt" fill="#222F3E" fill-rule="nonzero" transform="translate(2.000000, 2.000000)"><path id="Shape" d="M19.7346939,5.34693878 L14.6530612,0.265306122 C14.3265306,-0.0612244898 13.755102,-0.0612244898 13.4285714,0.265306122 L12.0816327,1.6122449 C12.0816327,1.6122449 12.0816327,1.6122449 12.0816327,1.6122449 C12.0816327,1.6122449 12.0816327,1.6122449 12.0816327,1.6122449 L0.265306122,13.4081633 C0.102040816,13.5714286 0,13.7959184 0,14.0204082 C0,14.244898 0.0816326531,14.4693878 0.265306122,14.6326531 L5.34693878,19.7142857 C5.51020408,19.877551 5.73469388,19.9795918 5.95918367,19.9795918 C6.18367347,19.9795918 6.40816327,19.877551 6.57142857,19.7142857 L19.7142857,6.57142857 C19.877551,6.40816327 19.9795918,6.18367347 19.9795918,5.95918367 C20,5.73469388 19.8979592,5.51020408 19.7346939,5.34693878 Z M5.95918367,18.755102 L1.24489796,14.0204082 L1.85714286,13.4081633 L3.18367347,14.7346939 C3.28571429,14.8367347 3.42857143,14.8979592 3.57142857,14.8979592 C3.71428571,14.8979592 3.85714286,14.8367347 3.95918367,14.7346939 C4.18367347,14.5102041 4.18367347,14.1632653 3.95918367,13.9387755 L2.65306122,12.6122449 L3.97959184,11.2857143 L6.16326531,13.4693878 C6.26530612,13.5714286 6.40816327,13.6326531 6.55102041,13.6326531 C6.69387755,13.6326531 6.83673469,13.5714286 6.93877551,13.4693878 C7.16326531,13.244898 7.16326531,12.8979592 6.93877551,12.6734694 L4.7755102,10.4897959 L6.12244898,9.14285714 L7.46938776,10.4897959 C7.57142857,10.5918367 7.71428571,10.6530612 7.85714286,10.6530612 C8,10.6530612 8.14285714,10.5918367 8.24489796,10.4897959 C8.46938776,10.2653061 8.46938776,9.91836735 8.24489796,9.69387755 L6.89795918,8.36734694 L8.20408163,7.06122449 L10.4081633,9.24489796 C10.5102041,9.34693878 10.6530612,9.40816327 10.7959184,9.40816327 C10.9387755,9.40816327 11.0816327,9.34693878 11.1836735,9.24489796 C11.4081633,9.02040816 11.4081633,8.67346939 11.1836735,8.44897959 L9,6.26530612 L10.3469388,4.91836735 L11.6938776,6.26530612 C11.7959184,6.36734694 11.9387755,6.42857143 12.0816327,6.42857143 C12.2244898,6.42857143 12.3673469,6.36734694 12.4693878,6.26530612 C12.6938776,6.04081633 12.6938776,5.69387755 12.4693878,5.46938776 L11.122449,4.12244898 L12.4489796,2.79591837 L14.6530612,4.97959184 C14.755102,5.08163265 14.8979592,5.14285714 15.0408163,5.14285714 C15.1836735,5.14285714 15.3265306,5.08163265 15.4489796,4.97959184 C15.6734694,4.75510204 15.6734694,4.40816327 15.4489796,4.18367347 L13.2653061,2 L14.0408163,1.2244898 L18.7755102,5.95918367 L5.95918367,18.755102 Z"/></g></g></g></g></g></svg>