<?xml version="1.0" encoding="UTF-8"?>
<svg width="16px" height="20px" viewBox="0 0 16 20" version="1.1" xmlns="http://www.w3.org/2000/svg" xmlns:xlink="http://www.w3.org/1999/xlink">
    <!-- Generator: Sketch 62 (91390) - https://sketch.com -->
    <title>ico-trash</title>
    <desc>Created with Sketch.</desc>
    <g id="Icons-and-Colors" stroke="none" stroke-width="1" fill="none" fill-rule="evenodd">
        <g id="ico-delete" transform="translate(-4.000000, -2.000000)">
            <g id="ico-trash">
                <g>
                    <rect id="icon-container" fill-opacity="0" fill="#FFFFFF" x="0" y="0" width="24" height="24"></rect>
                    <g id="trash" transform="translate(4.000000, 2.000000)" fill="#222F3E" fill-rule="nonzero">
                        <path d="M14.375,2.66666667 L11,2.66666667 C10.8958333,1.25 9.6875,0.125 8.22916667,0.125 L7.08333333,0.125 C5.64583333,0.125 4.45833333,1.25 4.35416667,2.66666667 L1.04166667,2.66666667 C0.541666667,2.66666667 0.166666667,3.04166667 0.166666667,3.54166667 L0.9375,16.9583333 C1.02083333,18.5833333 2.35416667,19.8541667 4,19.8541667 L11.3958333,19.8541667 C13.0416667,19.8541667 14.375,18.6041667 14.4791667,16.9583333 L15.2916667,3.58333333 L15.2916667,3.54166667 C15.2708333,3.0625 14.875,2.66666667 14.375,2.66666667 Z M7.08333333,1.27083333 L8.22916667,1.27083333 C9.04166667,1.27083333 9.72916667,1.89583333 9.83333333,2.66666667 L5.5,2.66666667 C5.60416667,1.875 6.27083333,1.27083333 7.08333333,1.27083333 Z M13.3125,16.8958333 C13.25,17.9375 12.3958333,18.7291667 11.375,18.7291667 L3.97916667,18.7291667 C2.95833333,18.7291667 2.125,17.9375 2.0625,16.9166667 L1.3125,3.83333333 L4.91666667,3.83333333 C4.91666667,3.83333333 4.91666667,3.83333333 4.91666667,3.83333333 C4.91666667,3.83333333 4.91666667,3.83333333 4.91666667,3.83333333 L10.4375,3.83333333 C10.4375,3.83333333 10.4375,3.83333333 10.4375,3.83333333 C10.4375,3.83333333 10.4375,3.83333333 10.4375,3.83333333 L14.1041667,3.83333333 L13.3125,16.8958333 Z" id="Shape"></path>
                        <path d="M9.89583333,8.20833333 L9.89583333,12.5625 C9.89583333,12.875 10.1458333,13.1458333 10.4791667,13.1458333 C10.8125,13.1458333 11.0625,12.8958333 11.0625,12.5625 L11.0625,8.20833333 C11.0625,7.89583333 10.8125,7.625 10.4791667,7.625 C10.1458333,7.625 9.89583333,7.89583333 9.89583333,8.20833333 Z" id="Path"></path>
                        <path d="M4.875,7.625 C4.5625,7.625 4.29166667,7.875 4.29166667,8.20833333 L4.29166667,12.5625 C4.29166667,12.875 4.54166667,13.1458333 4.875,13.1458333 C5.20833333,13.1458333 5.45833333,12.8958333 5.45833333,12.5625 L5.45833333,8.20833333 C5.45833333,7.89583333 5.20833333,7.625 4.875,7.625 Z" id="Path"></path>
                        <path d="M7.79166667,6.79166667 C7.47916667,6.79166667 7.20833333,7.04166667 7.20833333,7.375 L7.20833333,13.3958333 C7.20833333,13.7083333 7.45833333,13.9791667 7.79166667,13.9791667 C8.125,13.9791667 8.375,13.7291667 8.375,13.3958333 L8.375,7.375 C8.375,7.0625 8.125,6.79166667 7.79166667,6.79166667 Z" id="Path"></path>
                    </g>
                </g>
            </g>
        </g>
    </g>
</svg>