<?xml version="1.0" encoding="UTF-8"?>
<svg width="16px" height="20px" viewBox="0 0 16 20" version="1.1" xmlns="http://www.w3.org/2000/svg" xmlns:xlink="http://www.w3.org/1999/xlink">
    <!-- Generator: Sketch 62 (91390) - https://sketch.com -->
    <title>ico-alarm</title>
    <desc>Created with Sketch.</desc>
    <g id="Icons-and-Colors" stroke="none" stroke-width="1" fill="none" fill-rule="evenodd">
        <g id="alarm" transform="translate(-4.000000, -2.000000)">
            <g id="ico-alarm">
                <rect id="icon-container" fill-opacity="0" fill="#FFFFFF" x="0" y="0" width="24" height="24"></rect>
                <g id="alarm" transform="translate(4.000000, 2.000000)" fill="#222F3E" fill-rule="nonzero">
                    <path d="M15.5675676,16.7916667 C14.8324324,16.0833333 14.3351351,15.1666667 14.1621622,14.1875 C14.1621622,14.1666667 14.1621622,14.1458333 14.1621622,14.125 L13.2108108,8.0625 C13.1459459,7.72916667 13.1243243,7.4375 13.0810811,7.14583333 C12.9513514,4.72916667 10.9837838,2.79166667 8.51891892,2.52083333 L8.51891892,0.708333333 C8.51891892,0.395833333 8.25945946,0.125 7.91351351,0.125 C7.56756757,0.125 7.35135135,0.395833333 7.35135135,0.708333333 L7.35135135,2.54166667 C4.95135135,2.83333333 3.04864865,4.75 2.91891892,7.16666667 C2.91891892,7.375 2.87567568,7.625 2.83243243,7.85416667 L1.85945946,13.875 L1.77297297,14.3958333 C1.55675676,15.3333333 1.1027027,16.1666667 0.410810811,16.7916667 C0.172972973,17.0208333 0.0864864865,17.375 0.216216216,17.6875 C0.345945946,17.9791667 0.648648649,18.1875 0.994594595,18.1875 L6.85405405,18.1875 C6.85405405,18.25 6.83243243,18.2916667 6.83243243,18.3541667 L6.81081081,18.8125 C6.78918919,19.3958333 7.26486486,19.875 7.84864865,19.875 C7.87027027,19.875 7.87027027,19.875 7.89189189,19.875 C8.47567568,19.875 8.95135135,19.4375 8.97297297,18.875 L8.99459459,18.4166667 C8.99459459,18.3333333 8.99459459,18.2708333 8.97297297,18.1875 L14.9621622,18.1875 C15.3081081,18.1875 15.6108108,18 15.7405405,17.6875 C15.8918919,17.375 15.827027,17.0208333 15.5675676,16.7916667 Z M1.79459459,17.0416667 C2.35675676,16.3541667 2.76756757,15.5208333 2.96216216,14.625 C3.00540541,14.4791667 3.02702703,14.3333333 3.02702703,14.1875 C3.02702703,14.1458333 3.04864865,14.0833333 3.04864865,14.0208333 L3.97837838,8.20833333 L4,8 C4.04324324,7.75 4.06486486,7.47916667 4.08648649,7.20833333 C4.19459459,5.25 5.83783784,3.70833333 7.84864865,3.64583333 C7.87027027,3.64583333 7.89189189,3.64583333 7.93513514,3.64583333 C7.97837838,3.64583333 8,3.64583333 8.04324324,3.625 C10.0972973,3.66666667 11.7837838,5.20833333 11.8918919,7.20833333 C11.9135135,7.54166667 11.9567568,7.875 12.0216216,8.20833333 L12.972973,14.2291667 C12.972973,14.25 12.972973,14.2916667 12.9945946,14.3125 L12.9945946,14.3541667 C13.1675676,15.3333333 13.5783784,16.25 14.2054054,17.0416667 L1.79459459,17.0416667 L1.79459459,17.0416667 Z" id="Shape"></path>
                </g>
            </g>
        </g>
    </g>
</svg>