<svg xmlns="http://www.w3.org/2000/svg" xmlns:xlink="http://www.w3.org/1999/xlink" width="18" height="20" version="1.1" viewBox="0 0 18 20"><title>ico-surfboard</title><desc>Created with Sketch.</desc><g id="Icons-and-Colors" fill="none" fill-rule="evenodd" stroke="none" stroke-width="1"><g id="Surf" transform="translate(-3.000000, -2.000000)"><g id="ico-surfboard"><g transform="translate(0.000000, -0.000000)"><rect id="Rectangle" width="24" height="24" x="0" y="0" fill="#FFF" fill-opacity="0"/><g id="Shape" fill="#222F3E" fill-rule="nonzero"><path d="M12.4565217,0.152173913 L12.1956522,0.0217391304 L11.9347826,0.152173913 C10.8043478,0.717391304 9.7826087,1.67391304 8.93478261,2.91304348 C8.08695652,1.65217391 7.06521739,0.717391304 5.91304348,0.152173913 L5.65217391,0.0217391304 L5.39130435,0.152173913 C2.17391304,1.73913043 0.0217391304,6.23913043 0.0217391304,11.326087 C0.0217391304,14.4130435 0.804347826,17.3043478 2.2173913,19.5217391 C2.41304348,19.826087 2.73913043,20 3.08695652,20 L14.7391304,20 C15.0869565,20 15.4130435,19.826087 15.6086957,19.5217391 C17.0217391,17.326087 17.8043478,14.4130435 17.8043478,11.326087 C17.8043478,6.23913043 15.6521739,1.73913043 12.4565217,0.152173913 Z M5.63043478,1.36956522 C6.69565217,1.97826087 7.63043478,3 8.39130435,4.34782609 C8.7173913,4.93478261 9,5.58695652 9.23913043,6.26086957 L1.36956522,9.15217391 C1.84782609,5.63043478 3.45652174,2.60869565 5.63043478,1.36956522 Z M1.2173913,11.326087 C1.2173913,11.0434783 1.2173913,10.7608696 1.23913043,10.4782609 L9.58695652,7.43478261 C9.80434783,8.30434783 9.95652174,9.2173913 10.0217391,10.1521739 L1.32608696,13.326087 C1.26086957,12.673913 1.2173913,12 1.2173913,11.326087 Z M8.08695652,18.7826087 L3.17391304,18.7826087 C2.41304348,17.5652174 1.84782609,16.1086957 1.52173913,14.5217391 L10.0434783,11.4130435 C10.0217391,13.9347826 9.43478261,16.3913043 8.39130435,18.2826087 C8.2826087,18.4565217 8.19565217,18.6304348 8.08695652,18.7826087 Z M14.6521739,18.7826087 L9.47826087,18.7826087 C10.6086957,16.6956522 11.2391304,14.0434783 11.2391304,11.326087 C11.2391304,8.69565217 10.6521739,6.13043478 9.58695652,4.08695652 C10.3043478,2.86956522 11.1956522,1.93478261 12.173913,1.36956522 C14.7826087,2.86956522 16.5869565,6.89130435 16.5869565,11.326087 C16.6086957,14.1304348 15.9130435,16.7826087 14.6521739,18.7826087 Z" transform="translate(3.000000, 2.000000)"/></g></g></g></g></g></svg>