<?xml version="1.0" encoding="UTF-8"?>
<svg width="20px" height="20px" viewBox="0 0 20 20" version="1.1" xmlns="http://www.w3.org/2000/svg" xmlns:xlink="http://www.w3.org/1999/xlink">
    <!-- Generator: Sketch 62 (91390) - https://sketch.com -->
    <title>ico-plus</title>
    <desc>Created with Sketch.</desc>
    <g id="Icons-and-Colors" stroke="none" stroke-width="1" fill="none" fill-rule="evenodd">
        <g id="Plus" transform="translate(-2.000000, -2.000000)">
            <g id="icons/plus" transform="translate(0.000000, 0.000000)">
                <g id="ico-plus">
                    <rect id="icon-container" fill-opacity="0" fill="#FFFFFF" x="0" y="0" width="24" height="24"></rect>
                    <g id="plus" transform="translate(2.000000, 2.000000)" fill="#222F3E" fill-rule="nonzero">
                        <path d="M19.1084337,9.20481928 L10.5542169,9.20481928 L10.5542169,0.674698795 C10.5542169,0.289156627 10.2409639,0 9.87951807,0 C9.51807229,0 9.20481928,0.289156627 9.20481928,0.674698795 L9.20481928,9.22891566 L0.674698795,9.22891566 C0.289156627,9.20481928 0,9.51807229 0,9.87951807 C0,10.2409639 0.289156627,10.5542169 0.674698795,10.5542169 L9.22891566,10.5542169 L9.22891566,19.1084337 C9.22891566,19.4698795 9.51807229,19.7831325 9.90361446,19.7831325 C10.2891566,19.7831325 10.5783133,19.4698795 10.5783133,19.1084337 L10.5783133,10.5542169 L19.1325301,10.5542169 C19.4939759,10.5542169 19.8072289,10.2650602 19.8072289,9.87951807 C19.8072289,9.4939759 19.4698795,9.20481928 19.1084337,9.20481928 Z" id="Path"></path>
                    </g>
                </g>
            </g>
        </g>
    </g>
</svg>