<?xml version="1.0" encoding="UTF-8"?>
<svg width="20px" height="14px" viewBox="0 0 20 14" version="1.1" xmlns="http://www.w3.org/2000/svg" xmlns:xlink="http://www.w3.org/1999/xlink">
    <!-- Generator: Sketch 62 (91390) - https://sketch.com -->
    <title>ico-premuim</title>
    <desc>Created with Sketch.</desc>
    <defs>
        <linearGradient x1="50%" y1="0%" x2="50%" y2="100%" id="linearGradient-1">
            <stop stop-color="#F8E300" offset="0%"></stop>
            <stop stop-color="#F0CA1F" offset="100%"></stop>
        </linearGradient>
    </defs>
    <g id="Products-and-Design" stroke="none" stroke-width="1" fill="none" fill-rule="evenodd">
        <g id="Product-Detail" transform="translate(-122.000000, -188.000000)">
            <g id="Premuim-Banner" transform="translate(104.000000, 165.000000)">
                <g id="ico-premuim" transform="translate(16.000000, 18.000000)">
                    <g>
                        <rect id="Rectangle" fill-opacity="0" fill="#FFFFFF" x="0" y="0" width="24" height="24"></rect>
                        <path d="M17.6996554,18.3261259 L6.28454184,18.3261259 C5.6730179,18.3261259 5.6730179,17.3833598 6.28454184,17.3833598 L17.6996554,17.3833598 C18.3366595,17.3833598 18.3366595,18.3261259 17.6996554,18.3261259 Z M21.9293627,10.0195924 L18.0818579,16.1348318 C17.9799372,16.2877127 17.8270562,16.3641532 17.6741752,16.3641532 L6.33550216,16.3641532 C6.15714102,16.3641532 6.02974019,16.2877127 5.92781954,16.1348318 L2.08031474,10.0195924 C1.80003293,9.61190972 2.30963622,9.10230644 2.74279901,9.38258825 L7.91527235,12.7459699 L11.3041342,7.62445691 C10.0556061,6.91101232 10.5652094,5 11.9920986,5 C13.444468,5 13.9540713,6.91101232 12.6800631,7.62445691 L16.0434447,12.6950096 L21.2668784,9.38258825 C21.7000412,9.10230644 22.1841643,9.61190972 21.9293627,10.0195924 Z M11.9920986,6.88553215 C12.6291027,6.88553215 12.6291027,5.94276608 11.9920986,5.94276608 C11.3805747,5.94276608 11.3805747,6.88553215 11.9920986,6.88553215 Z M6.36098233,15.0646649 L7.40566906,13.535855 L4.01680722,11.3445609 L6.36098233,15.0646649 Z M10.3104078,15.4213872 L8.19555415,14.0454583 L7.25278808,15.4213872 L10.3104078,15.4213872 Z M11.890178,15.3194665 L15.2535596,13.2046129 L11.9920986,8.28694118 L8.70515744,13.2555732 L11.890178,15.3194665 Z M13.4954283,15.4213872 L16.7314092,15.4213872 L15.7886431,13.9690178 L13.4954283,15.4213872 Z M20.0183503,11.2936006 L16.5785282,13.4848947 L17.6232149,15.0646649 L20.0183503,11.2936006 Z" id="Shape" fill="url(#linearGradient-1)"></path>
                    </g>
                </g>
            </g>
        </g>
    </g>
</svg>