<svg xmlns="http://www.w3.org/2000/svg" xmlns:xlink="http://www.w3.org/1999/xlink" width="20" height="20" version="1.1" viewBox="0 0 20 20"><title>ico-cross-circle-fill</title><desc>Created with Sketch.</desc><g id="Icons-and-Colors" fill="none" fill-rule="evenodd" stroke="none" stroke-width="1"><g id="cross-circle-fill" transform="translate(-2.000000, -2.000000)"><g id="ico-cross-circle-fill"><g id="cross-circle"><rect id="icon-container" width="24" height="24" x="0" y="0" fill="#FFF" fill-opacity="0"/><path id="Shape" fill="#222F3E" fill-rule="nonzero" d="M16.375,7.66666667 C16.1458333,7.4375 15.7916667,7.4375 15.5625,7.66666667 L12,11.2291667 L8.4375,7.66666667 C8.20833333,7.4375 7.85416667,7.4375 7.625,7.66666667 C7.39583333,7.89583333 7.39583333,8.25 7.625,8.47916667 L11.1875,12.0416667 L7.625,15.6041667 C7.39583333,15.8333333 7.39583333,16.1875 7.625,16.4166667 C7.72916667,16.5208333 7.875,16.5833333 8.02083333,16.5833333 C8.16666667,16.5833333 8.3125,16.5208333 8.41666667,16.4166667 L12,12.8541667 L15.5625,16.4166667 C15.6666667,16.5208333 15.8125,16.5833333 15.9583333,16.5833333 C16.1041667,16.5833333 16.25,16.5208333 16.3541667,16.4166667 C16.5833333,16.1875 16.5833333,15.8333333 16.3541667,15.6041667 L12.8125,12.0416667 L16.375,8.47916667 C16.6041667,8.25 16.6041667,7.89583333 16.375,7.66666667 Z M12,2.0625 C17.4791667,2.0625 21.9583333,6.52083333 21.9791667,12 C21.9791667,17.5 17.5,21.9583333 12.0208333,21.9583333 C6.52083333,21.9583333 2.0625,17.4791667 2.0625,12 C2.0625,6.52083333 6.52083333,2.0625 12,2.0625 Z"/></g></g></g></g></svg>