<svg xmlns="http://www.w3.org/2000/svg" xmlns:xlink="http://www.w3.org/1999/xlink" width="20" height="18" version="1.1" viewBox="0 0 20 18"><title>ico-care</title><desc>Created with Sketch.</desc><g id="Icons-and-Colors" fill="none" fill-rule="evenodd" stroke="none" stroke-width="1"><g id="Care" transform="translate(-2.000000, -3.000000)"><g id="ico-care"><g transform="translate(0.000000, -0.000000)"><rect id="Rectangle" width="24" height="24" x="0" y="0" fill="#FFF" fill-opacity="0"/><g id="care" fill="#222F3E" fill-rule="nonzero" transform="translate(2.000000, 3.000000)"><path id="Shape" d="M17.1313131,11.6161616 L12.4040404,12.8282828 C12.4242424,12.7272727 12.4242424,12.6262626 12.4242424,12.5050505 C12.4242424,11.4747475 11.5959596,10.6262626 10.5454545,10.6262626 L6.70707071,10.6262626 C6.48484848,10 5.8989899,9.55555556 5.19191919,9.55555556 L1.6969697,9.55555556 C0.808080808,9.55555556 0.101010101,10.2828283 0.101010101,11.1717172 L0.101010101,15.6161616 C0.101010101,16.5050505 0.828282828,17.2121212 1.6969697,17.2121212 L5.21212121,17.2121212 C5.63636364,17.2121212 6.06060606,17.030303 6.36363636,16.7272727 C6.36363636,16.7272727 6.38383838,16.7070707 6.38383838,16.7070707 L6.86868687,16.9494949 C7.7979798,17.4343434 8.82828283,17.6767677 9.85858586,17.6767677 C10.4646465,17.6767677 11.0909091,17.5959596 11.6969697,17.4141414 L12.9494949,17.0505051 C12.9494949,17.0505051 12.9494949,17.0505051 12.9494949,17.0505051 L18.2222222,15.5353535 C18.7474747,15.3939394 19.1919192,15.0505051 19.4545455,14.5656566 C19.7171717,14.0808081 19.7777778,13.4949495 19.6161616,12.9494949 C19.2727273,11.9393939 18.1818182,11.3535354 17.1313131,11.6161616 Z M5.57575758,15.979798 C5.47474747,16.0808081 5.35353535,16.1212121 5.23232323,16.1212121 L1.6969697,16.1212121 C1.41414141,16.1212121 1.21212121,15.8989899 1.21212121,15.6363636 L1.21212121,11.1919192 C1.21212121,10.9090909 1.43434343,10.6868687 1.6969697,10.6868687 L5.19191919,10.6868687 C5.47474747,10.6868687 5.67676768,10.9090909 5.67676768,11.1919192 L5.67676768,15.6565657 C5.6969697,15.7777778 5.65656566,15.8989899 5.57575758,15.979798 Z M18.4646465,14.0606061 C18.3434343,14.2828283 18.1414141,14.4242424 17.9191919,14.5050505 L16.4646465,14.9292929 L16.4646465,14.9090909 L11.3939394,16.3838384 C10.040404,16.7676768 8.62626263,16.6262626 7.39393939,16 L6.80808081,15.6969697 C6.80808081,15.6767677 6.80808081,15.6565657 6.80808081,15.6363636 L6.80808081,11.7575758 L10.5656566,11.7575758 C10.989899,11.7575758 11.3333333,12.1010101 11.3333333,12.5252525 C11.3333333,13.1515152 10.8282828,13.6363636 10.2222222,13.6363636 L9.07070707,13.6363636 C8.76767677,13.6363636 8.50505051,13.8787879 8.50505051,14.2020202 C8.50505051,14.5252525 8.74747475,14.7676768 9.07070707,14.7676768 L10.2222222,14.7676768 C10.8080808,14.7676768 11.3333333,14.5454545 11.7171717,14.1818182 L17.4343434,12.7070707 C17.9191919,12.5858586 18.4040404,12.8484848 18.5656566,13.3131313 C18.6262626,13.5757576 18.5858586,13.8383838 18.4646465,14.0606061 Z"/><path id="Shape" d="M13.5555556,5.81818182 C13.7373737,5.81818182 13.9191919,5.81818182 14.0606061,5.7979798 L14.0606061,9.8989899 C14.0606061,10.2020202 14.3030303,10.4646465 14.6262626,10.4646465 C14.9494949,10.4646465 15.1919192,10.2222222 15.1919192,9.8989899 L15.1919192,7.31313131 C15.3333333,7.31313131 15.4949495,7.33333333 15.6565657,7.33333333 C16.5858586,7.33333333 17.9191919,7.15151515 18.8080808,6.26262626 L18.8080808,6.26262626 C20.2424242,4.82828283 19.8181818,2.2020202 19.7979798,2.08080808 L19.7373737,1.6969697 L19.3535354,1.63636364 C19.2323232,1.61616162 16.5858586,1.19191919 15.1515152,2.62626263 C15.0707071,2.70707071 15.010101,2.76767677 14.9494949,2.84848485 C14.8080808,2.22222222 14.5454545,1.5959596 14.040404,1.11111111 L14.040404,1.11111111 C12.6060606,-0.323232323 9.97979798,0.101010101 9.85858586,0.121212121 L9.47474747,0.202020202 L9.41414141,0.585858586 C9.39393939,0.707070707 8.96969697,3.33333333 10.4040404,4.76767677 C11.2929293,5.65656566 12.6464646,5.81818182 13.5555556,5.81818182 Z M15.9393939,3.41414141 C16.6868687,2.66666667 18.0606061,2.64646465 18.7474747,2.68686869 C18.8080808,3.45454545 18.7272727,4.76767677 18.020202,5.47474747 C17.2727273,6.22222222 15.8989899,6.24242424 15.2121212,6.2020202 C15.1717172,5.43434343 15.2323232,4.12121212 15.9393939,3.41414141 Z M10.4646465,1.17171717 C11.2323232,1.11111111 12.5454545,1.19191919 13.2525253,1.8989899 C14,2.64646465 14.020202,4.02020202 13.979798,4.68686869 C13.2929293,4.72727273 11.9393939,4.72727273 11.1919192,3.95959596 C10.4444444,3.21212121 10.4242424,1.85858586 10.4646465,1.17171717 Z"/></g></g></g></g></g></svg>