<svg xmlns="http://www.w3.org/2000/svg" xmlns:xlink="http://www.w3.org/1999/xlink" width="18" height="18" version="1.1" viewBox="0 0 18 18"><title>ico-search</title><desc>Created with Sketch.</desc><g id="Icons-and-Colors" fill="none" fill-rule="evenodd" stroke="none" stroke-width="1"><g id="Search" transform="translate(-3.000000, -3.000000)"><g id="ico-search" transform="translate(0.000000, 0.000000)"><rect id="icon-container" width="24" height="24" x="0" y="0" fill="#FFF" fill-opacity="0"/><g id="search" fill="#222F3E" fill-rule="nonzero" transform="translate(3.000000, 3.000000)"><path id="Shape" d="M16.8447205,14.8695652 L12.8944099,10.9192547 C12.5403727,10.5652174 11.9813665,10.5652174 11.6273292,10.9006211 L9.89440994,9.1863354 C10.6956522,8.2173913 11.1987578,6.9689441 11.1987578,5.60869565 C11.1987578,2.53416149 8.70186335,0.0186335404 5.60869565,0.0186335404 C2.51552795,0.0186335404 0.0186335404,2.51552795 0.0186335404,5.60869565 C0.0186335404,8.70186335 2.51552795,11.1987578 5.60869565,11.1987578 C6.95031056,11.1987578 8.19875776,10.7142857 9.16770186,9.91304348 L10.9006211,11.6273292 L10.8819876,11.6459627 C10.5279503,12 10.5279503,12.5962733 10.8819876,12.9503106 L14.8322981,16.8819876 C15.1863354,17.2360248 15.7826087,17.2360248 16.136646,16.8819876 L16.8447205,16.173913 C17.1987578,15.8012422 17.1987578,15.2236025 16.8447205,14.8695652 Z M1.0621118,5.60869565 C1.0621118,3.0931677 3.11180124,1.04347826 5.62732919,1.04347826 C8.14285714,1.04347826 10.1925466,3.0931677 10.1925466,5.60869565 C10.1925466,8.1242236 8.14285714,10.173913 5.62732919,10.173913 C3.11180124,10.173913 1.0621118,8.10559006 1.0621118,5.60869565 Z"/></g></g></g></g></svg>