<svg xmlns="http://www.w3.org/2000/svg" xmlns:xlink="http://www.w3.org/1999/xlink" width="20" height="17" version="1.1" viewBox="0 0 20 17"><title>ico-brush</title><desc>Created with Sketch.</desc><g id="Icons-and-Colors" fill="none" fill-rule="evenodd" stroke="none" stroke-width="1"><g id="Brush" transform="translate(-2.000000, -3.000000)"><g id="ico-brush"><g transform="translate(0.000000, -0.000000)"><rect id="Rectangle" width="24" height="24" x="0" y="0" fill="#FFF" fill-opacity="0"/><g id="brush-alt" fill="#222F3E" fill-rule="nonzero" transform="translate(2.000000, 3.000000)"><path id="Shape" d="M19.1041667,0.875 L19.1041667,0.875 C18.1458333,-0.0833333333 16.6458333,-0.104166667 15.6666667,0.791666667 L5.85416667,9.8125 C5.5,9.8125 5.14583333,9.91666667 4.8125,10.0625 C3.97916667,10.4166667 3.60416667,11.0625 3.3125,11.5416667 C3.0625,11.9791667 2.77083333,12.4791667 1.91666667,13 L0.1875,14.0833333 L1.91666667,15.125 C2.60416667,15.5416667 5,16.8958333 7.04166667,16.8958333 C7.83333333,16.8958333 8.5,16.6875 9,16.3125 C10.0416667,15.5208333 10.1875,14.6041667 10.1666667,14.0833333 L19.1875,4.27083333 C20.0625,3.3125 20.0416667,1.85416667 19.1041667,0.875 Z M8.3125,15.4375 C8.02083333,15.6666667 7.58333333,15.7916667 7.04166667,15.7916667 C5.25,15.7916667 2.95833333,14.4583333 2.5,14.1875 L2.35416667,14.1041667 L2.5,14 C3.52083333,13.375 3.9375,12.7708333 4.29166667,12.125 C4.5625,11.6458333 4.79166667,11.3125 5.25,11.1041667 C5.45833333,11 5.6875,10.9583333 5.89583333,10.9583333 C7.16666667,11.6666667 8.20833333,12.6875 8.91666667,13.9375 L9,14.1041667 L9,14.125 C9.04166667,14.4583333 8.9375,14.9583333 8.3125,15.4375 Z M18.3333333,3.54166667 L9.6875,12.9583333 C9,11.8958333 8.08333333,10.9791667 7.02083333,10.2916667 L16.4375,1.64583333 C16.9583333,1.16666667 17.7708333,1.16666667 18.2708333,1.6875 C18.7916667,2.20833333 18.8125,3 18.3333333,3.54166667 Z"/></g></g></g></g></g></svg>