<svg xmlns="http://www.w3.org/2000/svg" xmlns:xlink="http://www.w3.org/1999/xlink" width="20" height="20" version="1.1" viewBox="0 0 20 20"><title>ico-smile</title><desc>Created with Sketch.</desc><g id="Icons-and-Colors" fill="none" fill-rule="evenodd" stroke="none" stroke-width="1"><g id="Smile" transform="translate(-2.000000, -2.000000)"><g id="ico-smile"><g transform="translate(0.000000, -0.000000)"><rect id="Rectangle" width="24" height="24" x="0" y="0" fill="#FFF" fill-opacity="0"/><g id="friendly" fill="#222F3E" fill-rule="nonzero" transform="translate(2.000000, 2.000000)"><path id="Shape" d="M10,0.0612244898 C4.51020408,0.0612244898 0.0612244898,4.51020408 0.0612244898,10 C0.0612244898,15.4897959 4.51020408,19.9591837 10,19.9591837 C15.4897959,19.9591837 19.9591837,15.4897959 19.9591837,10 C19.9591837,4.51020408 15.4897959,0.0612244898 10,0.0612244898 Z M10,18.8367347 C5.14285714,18.8367347 1.18367347,14.8571429 1.18367347,10 C1.18367347,5.14285714 5.14285714,1.18367347 10,1.18367347 C14.8571429,1.18367347 18.8367347,5.14285714 18.8367347,10.0204082 C18.8367347,14.8571429 14.8571429,18.8367347 10,18.8367347 Z"/><circle id="Oval" cx="6.898" cy="6.837" r="1.082"/><circle id="Oval" cx="13.102" cy="6.837" r="1.082"/><path id="Path" d="M16.4489796,8.7755102 C16.1428571,8.71428571 15.8571429,8.91836735 15.7959184,9.20408163 C15.5306122,10.5306122 14.7755102,11.6734694 13.6734694,12.4489796 C12.5714286,13.2244898 11.2244898,13.5510204 9.89795918,13.3469388 C9.59183673,13.3061224 9.30612245,13.5102041 9.26530612,13.8163265 C9.2244898,14.122449 9.42857143,14.4081633 9.73469388,14.4489796 C10.0408163,14.4897959 10.3469388,14.5102041 10.6530612,14.5102041 C11.9591837,14.5102041 13.2244898,14.1020408 14.3061224,13.3469388 C15.6326531,12.4081633 16.5510204,11 16.8979592,9.40816327 C16.9387755,9.14285714 16.755102,8.83673469 16.4489796,8.7755102 Z"/></g></g></g></g></g></svg>