<svg xmlns="http://www.w3.org/2000/svg" xmlns:xlink="http://www.w3.org/1999/xlink" width="20" height="21" version="1.1" viewBox="0 0 20 21"><title>ico-upload-design</title><desc>Created with Sketch.</desc><defs><linearGradient id="linearGradient-1" x1="50%" x2="50%" y1="0%" y2="100%"><stop offset="0%" stop-color="#6441A5"/><stop offset="100%" stop-color="#54348D"/></linearGradient><path id="path-2" d="M4.51612903,11.9354839 C4.33797266,11.9354839 4.19354839,12.0799081 4.19354839,12.2580645 L4.19354839,13.8709677 C4.19354839,14.0491241 4.33797266,14.1935484 4.51612903,14.1935484 C4.6942854,14.1935484 4.83870968,14.0491241 4.83870968,13.8709677 L4.83870968,12.2580645 C4.83870968,12.0799081 4.6942854,11.9354839 4.51612903,11.9354839 Z"/><filter id="filter-3" width="255%" height="188.6%" x="-77.5%" y="-22.1%" filterUnits="objectBoundingBox"><feOffset dx="0" dy="1" in="SourceAlpha" result="shadowOffsetOuter1"/><feComposite in="shadowOffsetOuter1" in2="SourceAlpha" operator="out" result="shadowOffsetOuter1"/><feColorMatrix in="shadowOffsetOuter1" type="matrix" values="0 0 0 0 0.0863 0 0 0 0 0.1137 0 0 0 0 0.1451 0 0 0 0.1 0"/></filter><filter id="filter-4" width="410%" height="232.9%" x="-155%" y="-44.3%" filterUnits="objectBoundingBox"><feMorphology in="SourceAlpha" operator="erode" radius="1" result="shadowSpreadInner1"/><feOffset dx="0" dy="1" in="shadowSpreadInner1" result="shadowOffsetInner1"/><feComposite in="shadowOffsetInner1" in2="SourceAlpha" k2="-1" k3="1" operator="arithmetic" result="shadowInnerInner1"/><feColorMatrix in="shadowInnerInner1" type="matrix" values="0 0 0 0 1 0 0 0 0 1 0 0 0 0 1 0 0 0 0.06 0"/></filter><linearGradient id="linearGradient-5" x1="50%" x2="50%" y1="0%" y2="100%"><stop offset="0%" stop-color="#6441A5"/><stop offset="100%" stop-color="#54348D"/></linearGradient><path id="path-6" d="M19.0322581,3.5483871 L18.0645161,3.5483871 L18.0645161,0.322580645 C18.0645161,0.144424274 17.9200919,0 17.7419355,0 L15.8064516,0 C15.6282952,0 15.483871,0.144424274 15.483871,0.322580645 L15.483871,3.5483871 L0.322580645,3.5483871 C0.144424274,3.5483871 0,3.69281137 0,3.87096774 L0,15.483871 C0,15.6620273 0.144424274,15.8064516 0.322580645,15.8064516 L1.93548387,15.8064516 L1.93548387,16.7741935 C1.93548387,18.1994445 3.09087806,19.3548387 4.51612903,19.3548387 C5.94138,19.3548387 7.09677419,18.1994445 7.09677419,16.7741935 L7.09677419,15.8064516 L19.0322581,15.8064516 C19.2104144,15.8064516 19.3548387,15.6620273 19.3548387,15.483871 L19.3548387,3.87096774 C19.3548387,3.69281137 19.2104144,3.5483871 19.0322581,3.5483871 Z M17.4193548,8.38709677 L16.1290323,8.38709677 L16.1290323,1.93548387 L17.4193548,1.93548387 L17.4193548,8.38709677 Z M17.2525806,9.03225806 L16.7741935,10.1487097 L16.2958065,9.03225806 L17.2525806,9.03225806 Z M16.1290323,0.64516129 L17.4193548,0.64516129 L17.4193548,1.29032258 L16.1290323,1.29032258 L16.1290323,0.64516129 Z M1.80193548,4.19354839 L0.64516129,5.35032258 L0.64516129,4.19354839 L1.80193548,4.19354839 Z M2.25806452,4.64967742 L2.25806452,5.80645161 L1.10129032,5.80645161 L2.25806452,4.64967742 Z M6.4516129,16.7741935 C6.4516129,17.8431318 5.58506726,18.7096774 4.51612903,18.7096774 C3.44719081,18.7096774 2.58064516,17.8431318 2.58064516,16.7741935 L2.58064516,12.9032258 C2.58064516,11.8342876 3.44719081,10.9677419 4.51612903,10.9677419 C5.58506726,10.9677419 6.4516129,11.8342876 6.4516129,12.9032258 L6.4516129,16.7741935 Z M18.7096774,15.1612903 L7.09677419,15.1612903 L7.09677419,12.9032258 C7.09677419,11.4779748 5.94138,10.3225806 4.51612903,10.3225806 C3.09087806,10.3225806 1.93548387,11.4779748 1.93548387,12.9032258 L1.93548387,15.1612903 L0.64516129,15.1612903 L0.64516129,6.4516129 L2.58064516,6.4516129 C2.75880153,6.4516129 2.90322581,6.30718863 2.90322581,6.12903226 L2.90322581,4.19354839 L15.483871,4.19354839 L15.483871,8.70967742 C15.483871,8.71419355 15.4864516,8.71806452 15.4864516,8.72290323 C15.48747,8.76002555 15.4948909,8.79669326 15.5083871,8.83129032 L15.5083871,8.83612903 L15.5083871,8.83612903 L16.476129,11.0941935 C16.5269875,11.2127429 16.6435825,11.2895943 16.7725806,11.2895943 C16.9015788,11.2895943 17.0181737,11.2127429 17.0690323,11.0941935 L18.0367742,8.83612903 L18.0367742,8.83612903 L18.0367742,8.83129032 C18.0502704,8.79669326 18.0576913,8.76002555 18.0587097,8.72290323 C18.0587097,8.71806452 18.0612903,8.71419355 18.0612903,8.70967742 L18.0612903,4.19354839 L18.7064516,4.19354839 L18.7096774,15.1612903 Z"/><filter id="filter-7" width="105.2%" height="110.3%" x="-2.6%" y="-2.6%" filterUnits="objectBoundingBox"><feOffset dx="0" dy="1" in="SourceAlpha" result="shadowOffsetOuter1"/><feComposite in="shadowOffsetOuter1" in2="SourceAlpha" operator="out" result="shadowOffsetOuter1"/><feColorMatrix in="shadowOffsetOuter1" type="matrix" values="0 0 0 0 0.0863 0 0 0 0 0.1137 0 0 0 0 0.1451 0 0 0 0.1 0"/></filter><filter id="filter-8" width="110.3%" height="115.5%" x="-5.2%" y="-5.2%" filterUnits="objectBoundingBox"><feMorphology in="SourceAlpha" operator="erode" radius="1" result="shadowSpreadInner1"/><feOffset dx="0" dy="1" in="shadowSpreadInner1" result="shadowOffsetInner1"/><feComposite in="shadowOffsetInner1" in2="SourceAlpha" k2="-1" k3="1" operator="arithmetic" result="shadowInnerInner1"/><feColorMatrix in="shadowInnerInner1" type="matrix" values="0 0 0 0 1 0 0 0 0 1 0 0 0 0 1 0 0 0 0.06 0"/></filter><linearGradient id="linearGradient-9" x1="50%" x2="50%" y1="0%" y2="100%"><stop offset="0%" stop-color="#6441A5"/><stop offset="100%" stop-color="#54348D"/></linearGradient><path id="path-10" d="M17.7419355,13.8709677 L17.0967742,13.8709677 C16.9186178,13.8709677 16.7741935,14.015392 16.7741935,14.1935484 C16.7741935,14.3717048 16.9186178,14.516129 17.0967742,14.516129 L17.7419355,14.516129 C17.9200919,14.516129 18.0645161,14.3717048 18.0645161,14.1935484 C18.0645161,14.015392 17.9200919,13.8709677 17.7419355,13.8709677 Z"/><filter id="filter-11" width="177.5%" height="410%" x="-38.8%" y="-77.5%" filterUnits="objectBoundingBox"><feOffset dx="0" dy="1" in="SourceAlpha" result="shadowOffsetOuter1"/><feComposite in="shadowOffsetOuter1" in2="SourceAlpha" operator="out" result="shadowOffsetOuter1"/><feColorMatrix in="shadowOffsetOuter1" type="matrix" values="0 0 0 0 0.0863 0 0 0 0 0.1137 0 0 0 0 0.1451 0 0 0 0.1 0"/></filter><filter id="filter-12" width="255%" height="565%" x="-77.5%" y="-155%" filterUnits="objectBoundingBox"><feMorphology in="SourceAlpha" operator="erode" radius="1" result="shadowSpreadInner1"/><feOffset dx="0" dy="1" in="shadowSpreadInner1" result="shadowOffsetInner1"/><feComposite in="shadowOffsetInner1" in2="SourceAlpha" k2="-1" k3="1" operator="arithmetic" result="shadowInnerInner1"/><feColorMatrix in="shadowInnerInner1" type="matrix" values="0 0 0 0 1 0 0 0 0 1 0 0 0 0 1 0 0 0 0.06 0"/></filter><path id="path-13" d="M15.8064516,13.8709677 L15.1612903,13.8709677 C14.983134,13.8709677 14.8387097,14.015392 14.8387097,14.1935484 C14.8387097,14.3717048 14.983134,14.516129 15.1612903,14.516129 L15.8064516,14.516129 C15.984608,14.516129 16.1290323,14.3717048 16.1290323,14.1935484 C16.1290323,14.015392 15.984608,13.8709677 15.8064516,13.8709677 Z"/><filter id="filter-14" width="177.5%" height="410%" x="-38.7%" y="-77.5%" filterUnits="objectBoundingBox"><feOffset dx="0" dy="1" in="SourceAlpha" result="shadowOffsetOuter1"/><feComposite in="shadowOffsetOuter1" in2="SourceAlpha" operator="out" result="shadowOffsetOuter1"/><feColorMatrix in="shadowOffsetOuter1" type="matrix" values="0 0 0 0 0.0863 0 0 0 0 0.1137 0 0 0 0 0.1451 0 0 0 0.1 0"/></filter><filter id="filter-15" width="255%" height="565%" x="-77.5%" y="-155%" filterUnits="objectBoundingBox"><feMorphology in="SourceAlpha" operator="erode" radius="1" result="shadowSpreadInner1"/><feOffset dx="0" dy="1" in="shadowSpreadInner1" result="shadowOffsetInner1"/><feComposite in="shadowOffsetInner1" in2="SourceAlpha" k2="-1" k3="1" operator="arithmetic" result="shadowInnerInner1"/><feColorMatrix in="shadowInnerInner1" type="matrix" values="0 0 0 0 1 0 0 0 0 1 0 0 0 0 1 0 0 0 0.06 0"/></filter><linearGradient id="linearGradient-16" x1="50%" x2="50%" y1="0%" y2="100%"><stop offset="0%" stop-color="#6441A5"/><stop offset="100%" stop-color="#54348D"/></linearGradient><path id="path-17" d="M13.1529032,5.92483871 C13.0401195,5.78696564 12.8369318,5.76660355 12.6990323,5.87935484 L9.36483871,8.60741935 L6.34483871,5.88935484 C6.23371017,5.78934238 6.06842339,5.778795 5.94548387,5.86387097 L1.75193548,8.76709677 C1.65414334,8.8314359 1.59888036,8.94370346 1.60753822,9.06044192 C1.61619609,9.17718038 1.68741592,9.28006739 1.79362933,9.32927653 C1.89984274,9.37848566 2.02437928,9.36629345 2.11903226,9.29741935 L6.10290323,6.53935484 L9.13903226,9.27193548 C9.25727228,9.37810653 9.43522081,9.38234991 9.5583871,9.28193548 L13.1067742,6.37870968 C13.1730801,6.32464095 13.2151908,6.24644612 13.2238417,6.16132816 C13.2324927,6.0762102 13.2069752,5.99114201 13.1529032,5.92483871 Z"/><filter id="filter-18" width="108.6%" height="156.3%" x="-4.3%" y="-14.1%" filterUnits="objectBoundingBox"><feOffset dx="0" dy="1" in="SourceAlpha" result="shadowOffsetOuter1"/><feComposite in="shadowOffsetOuter1" in2="SourceAlpha" operator="out" result="shadowOffsetOuter1"/><feColorMatrix in="shadowOffsetOuter1" type="matrix" values="0 0 0 0 0.0863 0 0 0 0 0.1137 0 0 0 0 0.1451 0 0 0 0.1 0"/></filter><filter id="filter-19" width="117.2%" height="184.4%" x="-8.6%" y="-28.1%" filterUnits="objectBoundingBox"><feMorphology in="SourceAlpha" operator="erode" radius="1" result="shadowSpreadInner1"/><feOffset dx="0" dy="1" in="shadowSpreadInner1" result="shadowOffsetInner1"/><feComposite in="shadowOffsetInner1" in2="SourceAlpha" k2="-1" k3="1" operator="arithmetic" result="shadowInnerInner1"/><feColorMatrix in="shadowInnerInner1" type="matrix" values="0 0 0 0 1 0 0 0 0 1 0 0 0 0 1 0 0 0 0.06 0"/></filter><linearGradient id="linearGradient-20" x1="50%" x2="50%" y1="0%" y2="100%"><stop offset="0%" stop-color="#6441A5"/><stop offset="100%" stop-color="#54348D"/></linearGradient><path id="path-21" d="M12.2090323,10.1516129 C12.1462715,10.0623316 12.0439719,10.0091975 11.9348387,10.0091975 C11.8257055,10.0091975 11.7234059,10.0623316 11.6606452,10.1516129 L10.0477419,12.7322581 C9.98546689,12.8318958 9.98229352,12.9575139 10.0394583,13.0601688 C10.096623,13.1628238 10.2050833,13.2262773 10.3225806,13.2258091 L13.5483871,13.2258091 C13.6656535,13.2258091 13.7736834,13.1621691 13.8305305,13.0596029 C13.8873776,12.9570368 13.8840867,12.8316997 13.8219355,12.7322581 L12.2090323,10.1516129 Z M10.9032258,12.5806452 L11.9354839,10.9312903 L12.9677419,12.5806452 L10.9032258,12.5806452 Z"/><filter id="filter-22" width="125.8%" height="162.2%" x="-12.9%" y="-15.5%" filterUnits="objectBoundingBox"><feOffset dx="0" dy="1" in="SourceAlpha" result="shadowOffsetOuter1"/><feComposite in="shadowOffsetOuter1" in2="SourceAlpha" operator="out" result="shadowOffsetOuter1"/><feColorMatrix in="shadowOffsetOuter1" type="matrix" values="0 0 0 0 0.0863 0 0 0 0 0.1137 0 0 0 0 0.1451 0 0 0 0.1 0"/></filter><filter id="filter-23" width="151.6%" height="193.3%" x="-25.8%" y="-31.1%" filterUnits="objectBoundingBox"><feMorphology in="SourceAlpha" operator="erode" radius="1" result="shadowSpreadInner1"/><feOffset dx="0" dy="1" in="shadowSpreadInner1" result="shadowOffsetInner1"/><feComposite in="shadowOffsetInner1" in2="SourceAlpha" k2="-1" k3="1" operator="arithmetic" result="shadowInnerInner1"/><feColorMatrix in="shadowInnerInner1" type="matrix" values="0 0 0 0 1 0 0 0 0 1 0 0 0 0 1 0 0 0 0.06 0"/></filter></defs><g id="Icons-and-Colors" fill="none" fill-rule="evenodd" stroke="none" stroke-width="1"><g id="Design" transform="translate(-2.000000, -2.000000)"><g id="ico-upload-design"><g><rect id="Rectangle" width="24" height="24" x="0" y="0" fill="#FFF" fill-opacity="0"/><g id="noun_design_1682729" transform="translate(2.000000, 2.000000)"><g id="Path"><use fill="#000" fill-opacity="1" filter="url(#filter-3)" xlink:href="#path-2"/><use fill="url(#linearGradient-1)" fill-rule="evenodd" xlink:href="#path-2"/><use fill="#000" fill-opacity="1" filter="url(#filter-4)" xlink:href="#path-2"/><path stroke="#6441A5" stroke-linejoin="square" stroke-width="1"/></g><g id="Shape"><use fill="#000" fill-opacity="1" filter="url(#filter-7)" xlink:href="#path-6"/><use fill="url(#linearGradient-5)" fill-rule="evenodd" xlink:href="#path-6"/><use fill="#000" fill-opacity="1" filter="url(#filter-8)" xlink:href="#path-6"/><path stroke="#6441A5" stroke-linejoin="square" stroke-width="1"/></g><g id="Path"><use fill="#000" fill-opacity="1" filter="url(#filter-11)" xlink:href="#path-10"/><use fill="url(#linearGradient-9)" fill-rule="evenodd" xlink:href="#path-10"/><use fill="#000" fill-opacity="1" filter="url(#filter-12)" xlink:href="#path-10"/><path stroke="#6441A5" stroke-linejoin="square" stroke-width="1"/></g><g id="Path"><use fill="#000" fill-opacity="1" filter="url(#filter-14)" xlink:href="#path-13"/><use fill="url(#linearGradient-9)" fill-rule="evenodd" xlink:href="#path-13"/><use fill="#000" fill-opacity="1" filter="url(#filter-15)" xlink:href="#path-13"/><path stroke="#6441A5" stroke-linejoin="square" stroke-width="1"/></g><g id="Path"><use fill="#000" fill-opacity="1" filter="url(#filter-18)" xlink:href="#path-17"/><use fill="url(#linearGradient-16)" fill-rule="evenodd" xlink:href="#path-17"/><use fill="#000" fill-opacity="1" filter="url(#filter-19)" xlink:href="#path-17"/><path stroke="#6441A5" stroke-linejoin="square" stroke-width="1"/></g><g id="Shape"><use fill="#000" fill-opacity="1" filter="url(#filter-22)" xlink:href="#path-21"/><use fill="url(#linearGradient-20)" fill-rule="evenodd" xlink:href="#path-21"/><use fill="#000" fill-opacity="1" filter="url(#filter-23)" xlink:href="#path-21"/><path stroke="#6441A5" stroke-linejoin="square" stroke-width="1"/></g></g></g></g></g></g></svg>