<svg xmlns="http://www.w3.org/2000/svg" xmlns:xlink="http://www.w3.org/1999/xlink" width="20" height="21" version="1.1" viewBox="0 0 20 21"><title>ico-edit-description</title><desc>Created with Sketch.</desc><g id="Icons-and-Colors" fill="none" fill-rule="evenodd" stroke="none" stroke-width="1"><g id="Edit-Description" transform="translate(-2.000000, -2.000000)"><g id="ico-edit-description"><g transform="translate(0.000000, -0.000000)"><rect id="Rectangle" width="24" height="24" x="0" y="0" fill="#FFF" fill-opacity="0"/><g id="Edit-Description" fill="#222F3E" fill-rule="nonzero" transform="translate(2.000000, 2.000000)"><path id="Shape" d="M19.9166667,3.39583333 C19.9166667,3.16666667 19.8333333,2.95833333 19.6666667,2.79166667 L17.375,0.5 C17.2291667,0.3125 17.0208333,0.1875 16.8125,0.166666667 C16.5833333,0.145833333 16.3333333,0.229166667 16.1666667,0.416666667 L13.6875,2.875 L0.916666667,2.875 C0.4375,2.875 0.0625,3.22916667 0.0625,3.72916667 L0.0625,19.3958333 C0.0625,19.875 0.416666667,20.25 0.916666667,20.25 L16.5625,20.25 C17.0416667,20.25 17.4166667,19.8958333 17.4166667,19.3958333 L17.4166667,6.27083333 L19.6875,4 C19.8333333,3.83333333 19.9166667,3.625 19.9166667,3.39583333 Z M10.5416667,11.5208333 L10.2083333,11.1875 C9.97916667,10.9583333 9.625,10.9583333 9.39583333,11.1875 C9.16666667,11.4166667 9.16666667,11.7708333 9.39583333,12 L9.47916667,12.0833333 L7.35416667,12.7916667 L8.0625,10.6458333 L8.14583333,10.7291667 C8.25,10.8333333 8.39583333,10.8958333 8.54166667,10.8958333 C8.6875,10.8958333 8.83333333,10.8333333 8.9375,10.7291667 C9.16666667,10.5 9.16666667,10.1458333 8.9375,9.91666667 L8.60416667,9.58333333 L14.5833333,3.60416667 L16.5208333,5.52083333 L10.5416667,11.5208333 Z M16.2708333,19.1041667 L1.22916667,19.1041667 L1.22916667,4.02083333 L12.5625,4.02083333 L7.39583333,9.1875 L7.39583333,9.1875 L7.39583333,9.1875 L7.29166667,9.27083333 L5.9375,13.3958333 C5.875,13.5833333 5.875,13.7708333 5.97916667,13.9375 C6.04166667,14.0208333 6.1875,14.2291667 6.52083333,14.2291667 L6.60416667,14.2291667 L10.8125,12.8125 L16.2291667,7.39583333 L16.2291667,19.1041667 L16.2708333,19.1041667 Z M17.3333333,4.70833333 L15.3958333,2.79166667 L16.7291667,1.45833333 L18.6666667,3.39583333 L17.3333333,4.70833333 Z"/></g></g></g></g></g></svg>