<svg xmlns="http://www.w3.org/2000/svg" xmlns:xlink="http://www.w3.org/1999/xlink" width="92" height="92" viewBox="0 0 92 92">
    <defs>
        <path id="prefix__a" d="M0 0H92V92H0z"/>
    </defs>
    <g fill="none" fill-rule="evenodd">
        <mask id="prefix__b" fill="#fff">
            <use xlink:href="#prefix__a"/>
        </mask>
        <use fill="#FFF" xlink:href="#prefix__a"/>
        <g fill-rule="nonzero" mask="url(#prefix__b)">
            <g>
                <path fill="#87AAFF" d="M.406 42.488h13.363v4.123H.406v-4.123zm64.033-29.106c-.012-.108-.018-.213-.023-.316.154-.156.26-.36.289-.595l.19-1.564.165.564.328-2.17.222-1.477c.22.052.442.098.672.132 2.229.336 4.314-.228 5.634-1.352l.364.144.003-.003c.538.578 1.225 1.08 2.026 1.465l-.357 2.342-.338 2.208.323-.49-.234 1.916c-.02.17.001.333.057.482-.117.29-.263.569-.433.834l-.024.038c-.077.118-.16.233-.247.345l-.011.015c-.085.107-.174.212-.267.314l-.022.024c-.092.099-.187.194-.287.287l-.025.022c-.101.093-.206.182-.314.267-.148.115-.302.223-.46.316-.125.081-.25.153-.382.219l-.013 1.744h-.001l.013-1.744-.02.01-.003 1.74-.001 1.53-.004.417-.004.545-.007.939c-.62.673-1.468 1.145-2.444 1.286-.42.06-.834.052-1.232-.011-.005-.014-.009-.029-.009-.044 0-.12.198-.224.478-.356.347-.164.78-.369.78-.833 0-.146-.119-.264-.265-.264-.146 0-.264.118-.264.264 0 .12-.197.224-.477.356-.327.155-.725.348-.77.758-.296-.088-.58-.206-.846-.355-.418-.234-.792-.542-1.107-.906-.033-.038-.064-.078-.096-.117-.14-.124-.276-.255-.4-.398l.01-.177c-.036-.063-.07-.127-.102-.192l.12-.408.014-.045.378-1.284.582-1.377.655-1.551c-.104-.082-.204-.167-.298-.255-.03-.03-.057-.062-.087-.092-.324-.224-.571-.508-.713-.827-.043-.096-.077-.195-.1-.297-.237-.447-.408-.914-.51-1.372-.118-.118-.175-.307-.106-.65zm6.93-1.648c.34-.616.996-.644 1.36-.031.142.239.544.066.4-.177-.235-.396-.593-.74-1.085-.73-.503.011-.851.358-1.081.775-.137.247.27.406.405.163zm-4.897-.883c.476-.53 1.113-.377 1.328.295.085.265.517.187.43-.082-.145-.453-.419-.861-.91-.97-.48-.105-.9.163-1.207.507-.189.21.173.457.359.25zm7.78 27.177l-.85 2.371c.34-.857.612-1.597.865-2.323-.006-.022-.012-.04-.016-.048zm-2.628-13.076c0-.121-.198-.224-.477-.356l-.142-.069-.273 1.007c.131-.09.28-.161.415-.225.28-.133.477-.236.477-.357zm6.516 1.804c-.04-.384-.13-.75-.26-1.094-.71-2.292-2.622-4.132-5.142-4.634l-.77-.153c-.058.265-.232.93-.485 1.876.089-.06.141-.117.141-.179 0-.146.118-.264.264-.264.146 0 .264.118.264.264 0 .465-.432.67-.78.833l-.074.036-.152.564c.066.036.142.073.227.113.347.165.779.37.779.834 0 .464-.432.669-.78.833-.279.132-.477.235-.477.357 0 .121.198.224.478.356.347.165.779.37.779.834 0 .146-.118.264-.264.264-.146 0-.264-.118-.264-.264 0-.121-.198-.224-.477-.357-.244-.115-.526-.252-.675-.483l-.322 1.191-.15.555h3.385c.007.095.012.192.012.29v2.096c0 1.217-.557 2.303-1.43 3.018.87.644 1.937 1.03 3.082 1.03.122 0 .243-.007.364-.015-.442 1.322-.774 2.354-1.146 3.419.071.254.284 1.361.46 1.705-.361.128-1.22.576-1.325.618-.124.315-6.305 2.917-10.512 4.658.004-.064.007-.129.007-.194 0-.921-.444-1.75-1.15-2.331-.287-.237-.617-.433-.98-.577-.449-.178-.944-.279-1.467-.279-1.987 0-3.598 1.427-3.598 3.187 0 .623.205 1.202.553 1.692h2.985l-.186.076 11.715.016h7.09c.07-.002.146-.015.226-.037.498-.134 1.141-.612 1.338-.79 2.16-.53-1.04-16.747-1.283-19.064zM57.5 32.338c-.821.08-1.74.143-2.699.193-1.406.073-2.9.116-4.303.142-2.913.052-5.432.028-5.946.028-.413 0-.638-.115-.754-.317V27.51c1.766-1.347 4.623-3.036 7.366-4.527 3.36-1.826 6.55-3.356 7.36-3.598.251-.075.504-.121.754-.14l.007-.002c.238-.078.481-.135.728-.17.093-.013.188-.023.282-.03l.027-.002c.087-.006.174-.008.262-.009h.035c.093 0 .185.004.278.01l.011.001c.099.008.197.018.295.032.691-.082 1.405-.06 2.124.083-.002.02-.069.288-.187.746l-.315 1.22-.033.127.033.064c-.295 1.136-.698 2.69-1.16 4.454l-.06.04-.54 2.078c-.371.547-.845 1.02-1.388 1.398 1.056-.37 2.163-.593 2.8-.593.56 0 1.08.17 1.51.463.216.146.41.323.574.525.38.464.608 1.057.608 1.704 0 .39-.084.759-.233 1.093-.107.24-.248.462-.418.659-.493.574-1.224.94-2.04.94-1.15 0-3.826-.722-4.979-1.737zm-1.754-4.798c-.759.41-1.472.783-2.147 1.128.62.144 1.24.295 1.842.45h.001l.212-1.102.092-.476z" transform="translate(0 22)"/>
                <path fill="#463191" d="M12.918 39.429c.147-.152-.085-.384-.232-.232-.67.69-1.407 1.342-2.166 1.932-.376.292-.77.569-1.102.905.125-.515.224-1.036.277-1.563.723-.867 1.575-1.723 2.259-1.925 1.491-.442 2.767.69 1.829 1.734-.913 1.015-1.813 1.457-2.873 2.3H9.446c.288-.298.58-.59.874-.882.193-.147.387-.292.57-.45.69-.594 1.393-1.166 2.028-1.82zm-9.756-.226c.694.484 1.265 1.102 1.895 1.66.578.512 1.158 1.016 1.658 1.601-.151-.638-.185-1.283-.252-1.938-.722-.867-1.7-1.723-2.384-1.925-1.492-.442-2.768.69-1.83 1.734.893.992 1.774 1.438 2.803 2.244h1.333c-.43-.486-.917-.917-1.4-1.35-.654-.587-1.267-1.24-1.988-1.743-.172-.12-.008-.404.165-.283zm-.298-18.418c.26 0 .512-.038.752-.104L7.14 35.97c-.42.082-.738.412-.754 1.008-.037 1.403.334 2.358.52 3.76.122.928.147 1.535.15 1.841h.867c.117-.83.093-1.67.043-2.509-.007-.13-.016-.26-.025-.391-.038-.441-.089-.88-.153-1.318-.073-.414-.172-.821-.321-1.214-.002-.005-.001-.009-.002-.014l.318-.073c.362.96.44 1.996.51 3.01.06.835.075 1.68-.038 2.51h.1l.552-.101s.779-4.154 0-5.5c-.251-.436-.6-.734-.958-.894l-3.621-15.71c.823-.499 1.376-1.4 1.376-2.43 0-.834-.364-1.583-.94-2.103l12.759-4.81.021.05 1.308 2.899 8.661-3.91-1.082-2.397.06-.022-.27-.714-.112.042c-.806-1.588-2.444-2.604-4.237-2.604-.675 0-1.332.142-1.952.421-1.157.522-2.04 1.464-2.49 2.65-.35.93-.4 1.922-.157 2.864L3.964 15.328c-.338-.143-.71-.222-1.1-.222-1.566 0-2.84 1.274-2.84 2.84 0 1.565 1.274 2.84 2.84 2.84zm60.052 17.899l-2.15 3.272c.364.144.694.34.981.576l2.119-3.224c.172-.263.099-.615-.163-.787-.263-.172-.615-.1-.787.163zM91.06 46.61v1.696H.144v-1.696l50.354.031v-.034h1.414v-2.421h-1.414V32.673c1.403-.026 2.897-.07 4.303-.142l-.096.523-.047.254c-.21 1.144-.416 2.29-.615 3.403-.415 2.319-.815 4.61-1.13 6.44.315-1.83.715-4.122 1.13-6.44-.74 4.132-1.37 8.477-1.617 9.932l6.628-.011 11.715.015h7.09c.07 0 .147-.014.226-.036.498-.134 1.141-.612 1.338-.79 2.16-.53-1.04-16.748-1.283-19.065-.04-.384-.13-.75-.26-1.094-.71-2.292-2.622-4.132-5.142-4.634l-.77-.153c.01-.043.018-.079.02-.1l-.725-.145.002-1.53.002-1.74.02-.01-.013 1.743v.001l.014-1.745c.131-.066.257-.138.383-.219.157-.093.31-.2.459-.315.108-.085.213-.175.315-.268l.024-.022c.1-.092.195-.188.287-.287l.022-.024c.093-.101.182-.206.267-.314l.012-.015c.086-.112.169-.226.246-.344l.024-.039c.323-.072 3.94.152 3.947.038h1.552c5.27 0 9.543 5.263 9.543 11.754v19.317h2.691zm-38.746.032l.398-2.33-.398 2.33zm19.73-35.847c-.503.011-.851.358-1.081.775-.137.247.27.407.405.163.342-.616.997-.644 1.36-.031.143.239.545.066.402-.177-.236-.397-.594-.74-1.086-.73zm-4.724-.701c-.48-.106-.9.162-1.207.506-.188.21.173.457.359.25.476-.53 1.113-.377 1.328.295.085.265.517.187.43-.082-.145-.453-.42-.861-.91-.97zm-8.042 9.149l.007-.002c.328-.108.668-.175 1.01-.2l.027-.002c.087-.005.175-.008.262-.009h.036c.092 0 .184.004.277.01l.011.001c.1.008.198.018.296.032.69-.083 1.404-.06 2.123.082-.002.022 1.69.648 1.69.648l.582-1.376.655-1.551c-.104-.082-.204-.167-.298-.256l-.087-.091c-.324-.224-.571-.508-.713-.828-1.6-.095-3.874-.162-3.874-.162h-1.24c-4.035 0-7.482 3.085-8.878 7.442 3.36-1.826 6.55-3.356 7.36-3.598.251-.075.504-.12.754-.14zm-3.624 8.772l.092-.476c-.759.41-1.472.783-2.148 1.128.621.144 1.24.295 1.843.45.072-.374.142-.74.213-1.102zm7.91-14.653c.328.04.637-.08.852-.297.154-.156.26-.36.289-.595l.19-1.564.189-1.538c.044-.364-.109-.705-.375-.92l.082-.824c.253-2.562 2.826-4.413 5.737-4.125 1.417.14 2.698.76 3.61 1.743.901.975 1.33 2.191 1.209 3.426l-.15 1.522c-.552-.053-1.047.341-1.115.894l-.145 1.185-.234 1.917c-.02.168.001.332.057.48.13.347.442.611.834.66.561.068 1.072-.331 1.14-.892l.38-3.102c.043-.36-.105-.697-.365-.912l.083-.841.085-.854c.056-.572.007-1.14-.138-1.686-.147-.554-.393-1.086-.735-1.578-.145-.21-.307-.413-.487-.607-1.006-1.087-2.417-1.77-3.973-1.924-2.798-.277-5.32 1.257-6.122 3.55-.121.346-.204.71-.241 1.088l-.065.658c-.547-.047-1.037.346-1.104.894l-.38 3.102c-.067.561.332 1.071.893 1.14z" transform="translate(0 22)"/>
                <path fill="#F99B1D" d="M64.462 6.481c-.08-.14-.178-.315-.401-.667-1.424-2.238 5.836-7.262 9.941-3.222 1.192 1.173 1.2 2.24 1.043 2.87-.146-.21-.308-.413-.488-.607-1.006-1.087-2.417-1.77-3.972-1.924-2.798-.277-5.321 1.257-6.123 3.55zm11.455 2.245l-.085.854c.384-.656.65-1.597-.052-2.54.144.546.193 1.114.137 1.686zm-.72 1.465l.15-1.522c.122-1.234-.308-2.451-1.21-3.426-.91-.984-2.192-1.603-3.609-1.743-2.91-.288-5.484 1.563-5.737 4.125l-.082.824c.266.215.42.556.375.92l-.188 1.538.164.564.328-2.17.222-1.477c.22.052.442.098.672.132 2.229.336 4.314-.228 5.634-1.352l.364.144.003-.003c.538.577 1.226 1.077 2.027 1.463v.002l-.358 2.342-.338 2.208.323-.49.145-1.185c.068-.553.563-.947 1.114-.894zm-1.812 18.047H65.604c-.007.096-.012.192-.012.29v.133h-.18c-.537 0-1.03.185-1.426.493.216.146.41.323.575.525.245-.16.537-.255.852-.255h.18v1.201c0 .701.187 1.357.51 1.926h-.69c-.166 0-.327-.027-.477-.075-.107.24-.248.462-.418.659.276.115.578.18.895.18h1.045c.059 0 .117-.004.174-.008l.031-.002c.712.75 1.715 1.222 2.832 1.222.938 0 1.799-.332 2.472-.884.873-.716 1.43-1.802 1.43-3.018v-2.097c0-.098-.005-.194-.012-.29zm-6.349-4.476c0 .465.432.67.78.834.28.132.477.235.477.356s-.198.224-.477.357c-.348.164-.78.369-.78.833 0 .465.432.67.78.834.279.132.477.235.477.357 0 .145.118.263.264.263.146 0 .264-.118.264-.263 0-.465-.433-.67-.78-.834-.28-.132-.477-.236-.477-.357s.198-.224.477-.356c.347-.165.78-.37.78-.834 0-.465-.433-.669-.78-.833-.245-.117-.428-.21-.468-.314-.18-.028-.356-.067-.528-.118-.003.025-.009.048-.009.075zm1.005-.356c.347-.164.78-.37.78-.834 0-.145-.119-.263-.264-.263-.146 0-.264.118-.264.263 0 .122-.198.225-.478.357-.327.155-.725.348-.77.758.172.051.348.09.528.119-.006-.015-.01-.029-.01-.044 0-.12.199-.224.478-.356zm2.327 2.736c0 .139.041.252.105.35l.26-.958c-.204.14-.365.325-.365.608zm0-2.38c0 .403.324.61.637.765l.033-.122.108-.4c-.153-.083-.25-.158-.25-.243 0-.11.163-.205.401-.32l.186-.691c-.084.056-.2.113-.336.178-.347.164-.78.369-.78.833zm.637.765l.142.069c.28.132.477.235.477.356s-.198.224-.477.357c-.136.064-.284.135-.415.225l-.26.959c.15.23.431.368.675.483.28.132.477.235.477.357 0 .145.118.263.264.263.146 0 .264-.118.264-.263 0-.465-.432-.67-.78-.834-.279-.132-.477-.236-.477-.357s.198-.224.478-.356c.347-.165.779-.37.779-.834 0-.465-.432-.669-.78-.833-.084-.04-.16-.078-.226-.114l-.108.4-.033.122zm.368-1.121c.347-.164.779-.37.779-.834 0-.145-.118-.263-.264-.263-.146 0-.264.118-.264.263 0 .062-.053.12-.141.179l-.186.69c.025-.01.05-.023.076-.035zm-19.46 20.781v2.421H14.257V26.003h29.54v4.717c-.072.72-.198 1.32 0 1.664v11.803h8.114zm-23.509-6.743l1.396-1.36-1.929-.28-.862-1.748-.863 1.748-1.929.28 1.396 1.36-.33 1.921 1.726-.907 1.725.907-.33-1.92zM43.8 31.45v-.729c-.073.72-.199 1.32 0 1.664v-.935zM41.022 4.238c.211 0 .382-.171.382-.382V.538c0-.21-.171-.382-.382-.382-.21 0-.381.171-.381.382v3.318c0 .21.17.382.381.382zm0 12.027c.211 0 .382-.171.382-.382v-3.318c0-.21-.171-.382-.382-.382-.21 0-.381.171-.381.382v3.318c0 .21.17.382.381.382zM33.35 8.592h3.318c.21 0 .381-.17.381-.381s-.17-.382-.381-.382H33.35c-.211 0-.382.17-.382.382 0 .21.17.381.382.381zm11.646-.381c0 .21.17.381.381.381h3.318c.21 0 .382-.17.382-.381s-.171-.382-.382-.382h-3.318c-.21 0-.381.17-.381.382zM37.673 5.4c.075.075.172.112.27.112.098 0 .195-.037.27-.112.149-.149.149-.39 0-.54l-2.346-2.346c-.15-.149-.391-.149-.54 0-.15.15-.15.39 0 .54L37.673 5.4zm8.505 8.505c.075.074.172.112.27.112.098 0 .195-.038.27-.112.149-.15.149-.39 0-.54L44.37 11.02c-.149-.15-.39-.15-.54 0-.148.149-.148.39 0 .54l2.347 2.346zm-8.505-2.886l-2.346 2.346c-.15.15-.15.39 0 .54.074.074.172.112.27.112.097 0 .195-.038.27-.112l2.346-2.346c.149-.15.149-.39 0-.54-.149-.15-.39-.15-.54 0zm6.429-5.507c.097 0 .195-.037.27-.112l2.346-2.346c.149-.15.149-.39 0-.54-.15-.149-.391-.149-.54 0l-2.346 2.346c-.15.15-.15.391 0 .54.074.075.172.112.27.112z" transform="translate(0 22)"/>
            </g>
        </g>
    </g>
</svg>
