<svg xmlns="http://www.w3.org/2000/svg" xmlns:xlink="http://www.w3.org/1999/xlink" width="92" height="92" viewBox="0 0 92 92">
    <defs>
        <path id="prefix__a" d="M0 0H92V92H0z"/>
    </defs>
    <g fill="none" fill-rule="evenodd">
        <mask id="prefix__b" fill="#fff">
            <use xlink:href="#prefix__a"/>
        </mask>
        <use fill="#FFF" xlink:href="#prefix__a"/>
        <g fill-rule="nonzero" mask="url(#prefix__b)">
            <g>
                <path fill="#87AAFF" d="M43.023 21.571c-.015-.077-.024-.155-.024-.236 0-.833.789-1.508 1.762-1.508.232 0 .454.04.658.11l-.477 1.634-.368 1.265c-.247-.023-.479-.09-.685-.19-.379-.186-.67-.487-.805-.848-.028-.073-.047-.15-.061-.227zm3.476 0c.014-.077.024-.155.024-.236 0-.441-.223-.837-.576-1.113l-.393 1.35-.356 1.224c.674-.148 1.191-.628 1.301-1.225zm-17.313-9.675c0 .545-.442.987-.987.987h-.55c-.056.276-.146.569-.277.86l-.001.001c-.21.462-.518.916-.942 1.278l-.013.01c-.468.396-1.075.68-1.843.744-.106.009-.215.014-.327.014h-.033c-.802-.01-1.537-.323-2.122-.817l-.316 1.048-.004.012-.011-.012.32-1.059c-.08-.067-.155-.137-.228-.21-.095-.095-.182-.197-.266-.301-.03-.037-.06-.072-.088-.109-.016-.021-.03-.044-.045-.066-.037-.052-.074-.103-.109-.156-.243-.38-.418-.8-.507-1.235v-.002h-.492c-.545 0-.987-.442-.987-.987 0-.545.442-.987.987-.987h.431V9.396h.032l.034 1.513s.3-.28.749-.905c.216-.3.294-.49.319-.608h4.745c.024.118.103.308.319.608.448.624.749.905.749.905h.021c.023-.289.018-.541-.004-.76l.016-.753h.005v1.513h.438c.545 0 .987.442.987.987zm-6.33-1.244c-.006-.25-.136-.45-.29-.448-.153.002-.272.206-.266.455.001.041.007.08.014.119l.006.027c.007.03.016.056.026.082l.007.022h.002c.014.03.029.057.046.08v.002c.017.023.035.044.054.06l.002.002c.018.016.037.028.057.037l.012.005c.02.007.041.012.063.012.095-.001.176-.08.223-.198.013-.034.023-.07.03-.109l.004-.025c.006-.04.01-.08.01-.123zm3.337.007c.005-.25-.113-.453-.267-.455-.153-.002-.283.199-.289.448 0 .043.003.084.01.123l.003.025c.006.032.015.062.025.09l.005.019h.002c.011.028.025.055.04.078 0 .002.002.003.003.005.015.022.031.042.049.059h.001c.017.016.036.028.055.038l.012.004c.02.008.04.014.062.014.021 0 .042-.005.062-.012l.012-.005c.02-.009.04-.02.058-.037l.002-.001c.019-.017.037-.038.053-.061l.001-.001c.017-.024.032-.051.045-.081h.002l.007-.021c.01-.027.02-.054.027-.083l.006-.027c.007-.038.013-.078.014-.12zm-1.62 5.117c.768-.064 1.375-.348 1.843-.744l.013-.01.32 1.082.002.005.135.374-1.854 1.012c-.155-.182-.382-.299-.64-.299h-.408c-.24 0-.457.101-.61.262l-1.796-.98.193-.445.004-.012.316-1.048c.584.494 1.32.807 2.122.816h.033c.112 0 .22-.005.327-.013zm-.288 1.42c-.19 0-.375-.018-.556-.05.181.032.367.05.556.05zm49.449 59.11v-28.95H37.919V76.12c-.244.316-.363.543-.185.565.062.008.124.015.185.02v.037h.699c.217 0 .423-.012.62-.033 3.063-.329 3.726-3.06 7.635-3.06 4.478 0 4.478 3.047 8.955 3.047s4.477-3.047 8.952-3.047c4.16 0 4.645 3.093 8.257 3.093h.697v-.037c.06-.005.123-.012.186-.02.197-.024.07-.157-.186-.378z" transform="translate(9 7)"/>
                <path fill="#EF3124" d="M56.617 16.983v1.651c0 .143-.116.258-.258.258-.143 0-.258-.115-.258-.258v-1.651c0-.143.115-.258.258-.258.142 0 .258.115.258.258zm-.258 5.73c-.143 0-.258.115-.258.257v1.652c0 .142.115.258.258.258.142 0 .258-.116.258-.258V22.97c0-.142-.116-.258-.258-.258zm-1.91-1.91c0-.143-.116-.259-.258-.259h-1.652c-.142 0-.258.116-.258.258 0 .143.116.258.258.258h1.652c.142 0 .258-.115.258-.258zm5.73-.259h-1.652c-.143 0-.258.116-.258.258 0 .143.115.258.258.258h1.651c.143 0 .258-.115.258-.258 0-.142-.115-.258-.258-.258zM53.84 17.92c-.1-.1-.264-.1-.364 0-.101.1-.101.264 0 .365l1.168 1.168c.05.05.116.075.182.075.066 0 .132-.025.182-.075.1-.101.1-.264 0-.365L53.84 17.92zm4.234 4.234c-.1-.101-.264-.101-.365 0-.1.1-.1.264 0 .364l1.168 1.168c.05.05.117.076.183.076.066 0 .131-.025.182-.076.1-.1.1-.263 0-.364l-1.168-1.168zm-3.43 0l-1.168 1.168c-.101.1-.101.264 0 .364.05.05.116.076.182.076.066 0 .132-.025.182-.076l1.168-1.168c.1-.1.1-.263 0-.364-.1-.101-.264-.101-.364 0zm3.248-2.626c.066 0 .132-.025.182-.075l1.168-1.168c.1-.101.1-.264 0-.365-.1-.1-.264-.1-.365 0l-1.168 1.168c-.1.101-.1.264 0 .365.05.05.116.075.183.075zm-8.37-17.12c-.185 0-.336.15-.336.336v2.153c0 .185.15.335.336.335.186 0 .336-.15.336-.335V2.743c0-.185-.15-.336-.336-.336zm0 7.802c-.185 0-.336.15-.336.336v2.153c0 .185.15.336.336.336.186 0 .336-.15.336-.336v-2.153c0-.185-.15-.336-.336-.336zM47.033 7.72c0-.185-.15-.336-.336-.336h-2.152c-.186 0-.336.151-.336.336 0 .186.15.336.336.336h2.152c.186 0 .336-.15.336-.336zm4.978 0c0 .186.15.336.336.336H54.5c.186 0 .336-.15.336-.336 0-.185-.15-.336-.336-.336h-2.152c-.185 0-.336.151-.336.336zm-5.77-3.757c-.132-.13-.345-.13-.476 0-.131.132-.131.344 0 .475l1.522 1.523c.066.065.152.098.238.098s.172-.033.237-.098c.132-.132.132-.344 0-.476L46.24 3.963zm6.8 7.613c.087 0 .173-.033.238-.099.131-.13.131-.343 0-.475L51.757 9.48c-.131-.13-.344-.13-.475 0-.131.131-.131.344 0 .475l1.522 1.522c.066.066.152.099.238.099zM47.288 9.48l-1.522 1.523c-.131.13-.131.343 0 .475.066.065.151.098.237.098s.172-.033.238-.098l1.522-1.523c.131-.13.131-.343 0-.475-.131-.13-.344-.13-.475 0zM51.52 6.06c.086 0 .171-.033.237-.098l1.522-1.523c.131-.13.131-.343 0-.475-.131-.13-.344-.13-.475 0l-1.522 1.522c-.131.132-.131.344 0 .476.066.065.152.098.238.098z" transform="translate(9 7)"/>
                <path fill="#19BC81" d="M39.237 76.71l.004.032h-.623c.217 0 .423-.012.62-.033zm-1.318-3.462v2.872c-.244.316-.363.543-.185.565.062.008.124.015.185.02v.037H.174c-.033-.224-.056-.453-.056-.686 0-2.568 2.11-4.65 4.713-4.65.142 0 .28.009.418.02-.265-.72-.418-1.496-.418-2.307 0-3.737 3.07-6.766 6.858-6.766 3.141 0 5.786 2.086 6.597 4.929l-.205 4.83h3.679l.873-6.461c.129-.01.259-.016.39-.016 1.31 0 2.499.504 3.382 1.325l.697 5.152h3.679l-.073-1.71c.437-.082.887-.127 1.348-.127 2.417 0 4.554 1.174 5.863 2.973zm-17.16-.968l-5.489 4.377h5.488V72.28zm12.766 4.377l-5.487-4.377v4.377h5.487zm3.128-63.117c.067 0 .121-.055.121-.122v-.777c0-.067-.054-.12-.121-.12s-.122.053-.122.12v.777c0 .067.055.122.122.122zm0 2.817c.067 0 .121-.055.121-.122v-.777c0-.067-.054-.121-.121-.121s-.122.054-.122.121v.777c0 .067.055.122.122.122zm-1.797-1.797h.777c.067 0 .121-.055.121-.122s-.054-.12-.121-.12h-.777c-.067 0-.122.053-.122.12s.055.122.122.122zm3.594-.243h-.777c-.067 0-.122.054-.122.121s.055.122.122.122h.777c.067 0 .121-.055.121-.122s-.054-.12-.121-.12zm-2.604-.514c.024.024.054.035.086.035.03 0 .062-.011.085-.035.048-.047.048-.124 0-.172l-.55-.55c-.046-.046-.123-.046-.17 0-.048.048-.048.125 0 .172l.549.55zm1.614 1.27c-.048-.047-.125-.047-.172 0-.047.048-.047.125 0 .172l.55.55c.023.023.054.035.085.035.031 0 .062-.012.086-.035.048-.048.048-.124 0-.172l-.55-.55zm-1.614 0l-.55.55c-.047.048-.047.124 0 .172.024.023.055.035.086.035.031 0 .062-.012.086-.035l.55-.55c.047-.047.047-.124 0-.171-.048-.048-.125-.048-.172 0zm1.528-1.234c.03 0 .062-.012.086-.036l.55-.55c.046-.047.046-.124 0-.17-.048-.048-.125-.048-.172 0l-.55.549c-.047.047-.047.124 0 .171.024.024.055.036.086.036zM7.29 43.388c.155 0 .28-.126.28-.281v-1.795c0-.155-.125-.28-.28-.28-.155 0-.28.125-.28.28v1.795c0 .155.125.28.28.28zm0 6.509c.155 0 .28-.126.28-.28V47.82c0-.155-.125-.28-.28-.28-.155 0-.28.125-.28.28v1.796c0 .154.125.28.28.28zm-4.153-4.153h1.796c.155 0 .28-.125.28-.28 0-.154-.125-.28-.28-.28H3.137c-.154 0-.28.126-.28.28 0 .155.126.28.28.28zm6.23-.28c0 .155.125.28.28.28h1.795c.155 0 .28-.125.28-.28 0-.154-.125-.28-.28-.28H9.646c-.154 0-.28.126-.28.28zm-3.942-1.468c.055.054.127.082.198.082.072 0 .144-.028.198-.082.11-.11.11-.287 0-.396l-1.27-1.27c-.109-.11-.286-.11-.396 0-.11.109-.11.286 0 .396l1.27 1.27zm4.603 4.603c.055.054.127.082.198.082.072 0 .143-.028.198-.082.11-.11.11-.287 0-.397l-1.27-1.27c-.11-.11-.287-.11-.396 0-.11.11-.11.287 0 .397l1.27 1.27zm-4.603-1.667l-1.27 1.27c-.11.11-.11.287 0 .397.055.054.127.082.199.082.071 0 .143-.028.197-.082l1.27-1.27c.11-.11.11-.287 0-.397-.11-.11-.286-.11-.396 0zm3.531-2.854c.072 0 .144-.028.198-.082l1.27-1.27c.11-.11.11-.287 0-.396-.11-.11-.287-.11-.396 0l-1.27 1.27c-.11.109-.11.286 0 .396.055.054.127.082.198.082zM64.12 25.173c-.067 0-.12.055-.12.122v.777c0 .067.053.12.12.12s.122-.053.122-.12v-.777c0-.067-.054-.122-.122-.122zm0 2.817c-.067 0-.12.054-.12.122v.777c0 .067.053.12.12.12s.122-.053.122-.12v-.777c0-.068-.054-.122-.122-.122zm-.898-.898c0-.067-.054-.122-.122-.122h-.777c-.066 0-.12.055-.12.122s.053.121.12.121h.777c.068 0 .122-.054.122-.121zm2.695-.122h-.777c-.067 0-.121.055-.121.122s.054.121.121.121h.777c.067 0 .122-.054.122-.121s-.055-.122-.122-.122zm-2.982-1.235c-.047-.047-.124-.047-.171 0-.048.048-.048.124 0 .172l.55.55c.023.023.054.035.085.035.031 0 .062-.012.086-.036.047-.047.047-.124 0-.171l-.55-.55zm1.992 1.992c-.047-.047-.124-.047-.171 0-.047.047-.047.124 0 .172l.55.549c.023.024.054.036.085.036.031 0 .062-.012.086-.036.047-.047.047-.124 0-.172l-.55-.549zm-1.614 0l-.549.55c-.047.047-.047.124 0 .171.024.024.055.036.086.036.03 0 .062-.012.086-.036l.549-.55c.047-.047.047-.124 0-.171-.047-.047-.124-.047-.172 0zm1.529-1.235c.03 0 .062-.012.085-.036l.55-.55c.047-.047.047-.123 0-.17-.048-.048-.124-.048-.172 0l-.55.549c-.046.047-.046.124 0 .171.025.024.056.036.087.036z" transform="translate(9 7)"/>
                <path fill="#F99B1D" d="M21.76 16.02l.32-1.058-.32 1.059.011.012-.011-.012zm42.818 17.316H47.075c-.305 0-.552.248-.552.553 0 .305.247.552.552.552h3.29c-.007.062-.012.124-.012.187l-1.844 10.468c0 1.248 1.51 2.26 3.373 2.26h7.89c1.863 0 3.373-1.012 3.373-2.26L61.42 34.628c0-.063-.005-.125-.013-.187h3.171c.305 0 .552-.247.552-.552 0-.305-.247-.553-.552-.553zM25.032 17.495c-.155-.181-.382-.299-.64-.299h-.409c-.24 0-.456.102-.61.263l-1.796-.98-1.17-.64v2.376c.212-.092.402-.159.555-.19.002.06.16.608.407 1.423l1.866-1.02c.141.272.421.46.748.46h.41c.342 0 .637-.206.77-.5l2.065 1.128c.017-.103.028-.194.034-.271.036-.488.064-.93.082-1.315.25-.003.49.017.721.056v-2.147l-1.179.644-1.854 1.012zm25.026 9.409c.073 0 .133-.06.133-.134v-.854c0-.073-.06-.133-.133-.133-.074 0-.134.06-.134.133v.854c0 .074.06.134.134.134zm0 3.095c.073 0 .133-.06.133-.133v-.854c0-.073-.06-.133-.133-.133-.074 0-.134.06-.134.133v.854c0 .074.06.133.134.133zm-1.976-1.974h.855c.073 0 .133-.06.133-.134 0-.073-.06-.133-.133-.133h-.855c-.073 0-.133.06-.133.133 0 .074.06.134.133.134zm2.963-.134c0 .074.06.134.133.134h.854c.074 0 .134-.06.134-.134 0-.073-.06-.133-.134-.133h-.854c-.073 0-.133.06-.133.133zm-1.874-.698c.026.026.06.039.094.039s.068-.013.094-.04c.053-.051.053-.136 0-.188l-.604-.604c-.052-.052-.136-.052-.188 0-.052.052-.052.137 0 .189l.604.604zm2.189 2.189c.026.026.06.04.094.04s.068-.014.095-.04c.052-.052.052-.136 0-.188l-.604-.604c-.053-.053-.137-.053-.19 0-.051.052-.051.136 0 .188l.605.604zm-2.19-.792l-.603.604c-.052.052-.052.136 0 .188.026.026.06.04.094.04s.068-.014.094-.04l.604-.604c.053-.052.053-.136 0-.188-.052-.053-.136-.053-.188 0zm1.68-1.358c.034 0 .068-.013.095-.039l.604-.604c.052-.052.052-.137 0-.188-.053-.053-.137-.053-.189 0l-.604.603c-.052.053-.052.137 0 .189.026.026.06.039.094.039zm15.188-16.526c-.13 0-.236.105-.236.236v1.512c0 .13.106.236.236.236s.236-.106.236-.236v-1.512c0-.13-.106-.236-.236-.236zm0 5.48c-.13 0-.236.107-.236.237v1.512c0 .13.106.236.236.236s.236-.106.236-.236v-1.512c0-.13-.106-.236-.236-.236zm-3.497-1.512h1.512c.13 0 .236-.105.236-.236 0-.13-.105-.236-.236-.236h-1.512c-.13 0-.236.106-.236.236s.106.236.236.236zm6.994-.472h-1.513c-.13 0-.235.106-.235.236s.105.236.235.236h1.513c.13 0 .236-.105.236-.236 0-.13-.106-.236-.236-.236zm-5.067-1c.046.046.106.07.166.07.06 0 .121-.024.167-.07.092-.092.092-.242 0-.334l-1.07-1.07c-.091-.091-.24-.091-.333 0-.092.093-.092.242 0 .335l1.07 1.069zm3.14 2.473c-.092-.092-.242-.092-.334 0-.092.092-.092.241 0 .334l1.07 1.069c.046.046.106.07.167.07.06 0 .12-.024.166-.07.093-.092.093-.242 0-.334l-1.069-1.07zm-3.14 0l-1.07 1.07c-.092.091-.092.24 0 .333.046.046.107.07.167.07.06 0 .12-.024.167-.07l1.07-1.07c.091-.092.091-.24 0-.333-.093-.092-.242-.092-.334 0zm2.973-2.404c.06 0 .121-.023.167-.07l1.07-1.068c.092-.093.092-.242 0-.334-.093-.092-.242-.092-.334 0l-1.07 1.07c-.092.091-.092.24 0 .333.046.046.107.07.167.07zm-59.915-.28c-.13 0-.236.107-.236.237v1.512c0 .13.106.236.236.236s.236-.106.236-.236v-1.512c0-.13-.106-.236-.236-.236zm0 5.482c-.13 0-.236.106-.236.236v1.512c0 .13.106.236.236.236s.236-.105.236-.236V18.71c0-.13-.106-.236-.236-.236zm-1.749-1.748c0-.13-.105-.236-.236-.236H4.03c-.13 0-.236.105-.236.236 0 .13.106.236.236.236H5.54c.13 0 .236-.106.236-.236zm5.246-.236H9.51c-.13 0-.236.105-.236.236 0 .13.106.236.236.236h1.513c.13 0 .236-.106.236-.236s-.106-.236-.236-.236zM5.22 14.085c-.092-.092-.241-.092-.334 0-.092.092-.092.242 0 .334l1.07 1.07c.046.045.106.068.166.068.06 0 .121-.023.167-.069.093-.092.093-.241 0-.334l-1.07-1.069zm3.876 3.876c-.092-.092-.242-.092-.334 0-.092.092-.092.242 0 .334l1.07 1.07c.046.045.106.069.167.069.06 0 .12-.024.166-.07.093-.092.093-.241 0-.334l-1.069-1.069zm-3.14 0l-1.07 1.07c-.092.092-.092.241 0 .333.046.046.107.07.167.07.06 0 .121-.024.167-.07l1.07-1.069c.092-.092.092-.242 0-.334-.093-.092-.242-.092-.334 0zm2.973-2.404c.06 0 .121-.023.167-.069l1.07-1.069c.092-.092.092-.242 0-.334-.093-.092-.242-.092-.334 0l-1.07 1.07c-.092.092-.092.241 0 .333.046.046.107.07.167.07z" transform="translate(9 7)"/>
                <path fill="#463191" d="M48.934 9.966l-.012.042-.698 2.397-.986 3.385-.698 2.397-.592 2.035-.394 1.35-.356 1.224-.341 1.173-.181.621c-.028.096-.178.137-.333.092-.155-.045-.26-.16-.231-.256l.133-.457.33-1.133.368-1.265.476-1.635.51-1.75.698-2.397.985-3.384.698-2.397.06-.206c.028-.096.177-.137.333-.092.155.046.26.16.231.256zM24.37 19.85c-.23 0-.416.186-.416.416 0 .23.187.416.416.416.23 0 .417-.186.417-.416 0-.23-.187-.416-.417-.416zm0 4.07c-.23 0-.416.187-.416.417 0 .23.187.416.416.416.23 0 .417-.186.417-.416 0-.23-.187-.416-.417-.416zm1.268-13.267c0 .043.003.084.01.123l.003.025c.006.032.015.062.025.09l.005.018h.002c.011.03.025.056.04.08l.003.003c.015.023.031.043.049.06h.001c.017.016.036.028.055.037l.012.005c.02.008.04.014.062.014.021 0 .042-.005.062-.013l.012-.004c.02-.01.04-.021.058-.037l.002-.001c.019-.017.037-.038.053-.061l.001-.001c.017-.024.032-.052.045-.081h.002l.007-.021c.01-.027.02-.054.027-.083l.006-.027c.007-.038.013-.078.014-.12.005-.248-.113-.452-.267-.454-.153-.002-.283.199-.289.448zm-3.337.007c.001.041.007.08.014.119l.006.027c.007.03.016.056.027.082l.007.022h.002c.013.03.028.057.045.08v.002c.017.023.035.043.054.06l.002.002c.018.016.037.028.058.037l.012.005c.02.007.04.012.062.012.095-.001.176-.08.223-.198.014-.033.023-.07.03-.109l.005-.025c.005-.04.01-.08.009-.123-.006-.25-.136-.45-.29-.448-.153.002-.272.206-.266.455zm-3.856-1.263h2.364l.034 1.513s.3-.281.749-.905c.216-.3.294-.49.319-.608h4.745c.024.117.103.308.319.608.448.624.749.905.749.905l.017-.76.016-.753h2.225c.2 0 .363-.163.363-.364 0-.2-.163-.364-.364-.364h-2.168c.005-.04.008-.082.008-.123l1.215-6.899c0-.823-.995-1.49-2.223-1.49h-5.2c-1.228 0-2.223.667-2.223 1.49l1.137 6.899c0 .041.004.082.009.123h-2.09c-.201 0-.364.163-.364.364 0 .201.163.364.363.364zm24.872 14.412l-.08.16c.109-.187.127-.227.08-.16zm.573-1.163l-.573 1.163c-.206.293-1.658 2.618-2.374 3.601-.276.378-.556.755-.835 1.123-1.366 1.805-2.687 3.397-3.2 3.924-.558.572-1.853 1.202-1.908 1.25-.852.724-3.542-2.172-5.723-4.93l3.567 11.287s.988 3.483.962 5.199c-.053 3.458-1.624 6.086-3.837 7.678l.74 17.462.073 1.71H27.1l-.695-5.152-1.659-12.268c-.21.005-.42 0-.631-.01l-1.483 10.969-.873 6.46h-3.68l.206-4.83.621-14.62c-1.608-1.35-2.885-3.397-3.496-6.223-.62-2.865.87-6.375.87-6.375l1.34-4.784c-2.862-.959-3.928-2.23-4.797-2.68-.709-.368-1.687-1.425-1.747-1.464-1.54-.992 4.777-9.502 6.166-10.917.379-.385 2.073-1.531 3.165-2.004.212-.091.402-.158.554-.189.003.06.161.608.408 1.423.869 2.87 2.835 9.071 2.961 9.067L19.358 40.74h9.828l-4.63-11.66-.225-.566c.144-.006 2.563-6.946 2.897-9 .017-.103.029-.194.035-.27.036-.488.064-.93.081-1.315.25-.003.49.017.722.056 1.725.287 2.92 1.62 3.324 2.359.529.966 2.015 4.616 2.992 7.873.947-.912 3.63-3.17 5.928-4.78 1.087-.763 2.086-1.38 2.774-1.64.135.361.427.662.805.847zm-25.35 4.634c-.778.573-1.593 1.148-2.39 1.676.762.427.299 1.415 1.903 2.54l.487-4.216zm9.499 49.378h5.487l-5.487-4.377v4.377zm-7.28 0V72.28l-5.488 4.377h5.488z" transform="translate(9 7)"/>
            </g>
        </g>
    </g>
</svg>
