<svg xmlns="http://www.w3.org/2000/svg" width="200" height="200" viewBox="0 0 200 200">
    <g fill="none" fill-rule="evenodd">
        <path fill="#FFF" fill-opacity="0" d="M0 0H200V200H0z"/>
        <g fill-rule="nonzero">
            <path fill="#87AAFF" d="M73.1 47.133l.024-.238c.119-.988.049-1.945-.174-2.83-.352-.052-.745-.177-1.18-.384l-.092-.008.092.008c-.385-.183-.798-.424-1.249-.745.017 1.436-2.897 2.848-4.023 1.825.634.585.79 2.056.392 3.046-.153-.81-.75-1.416-1.468-1.416-.228 0-.442.066-.636.175-.514.29-.873.916-.873 1.648 0 1.006.676 1.822 1.509 1.822.297 0 .571-.107.804-.285l.079.008c-.845 1.404-2.631 1.85-5.314.886l-1.82 4.389.005.002 7.62 4.604.013-.07.009-.05.134-.738.776-4.273.253-1.396c.105.053.207.102.31.148.848.403 1.656.668 2.327.747 1.254.152 1.832-.358 2.106-1.259.248-.817.247-1.953.263-3.22.257-.015.487-.06.653-.128.75-.317.03-1.018-.343-1.909-.057-.129-.125-.25-.197-.359zm-1.99-.178c.033-.333.224-.585.43-.563.203.022.345.31.312.644-.034.333-.224.586-.43.563-.203-.022-.343-.31-.312-.644zm31.16 21.815c0 1.91-1.547 3.456-3.456 3.456-.569 0-1.104-.14-1.578-.383-.14-.073-.275-.154-.404-.244-.223-.156-.425-.339-.604-.542-.54-.61-.87-1.409-.87-2.287 0-.246.027-.486.076-.718.33-1.564 1.718-2.738 3.38-2.738 1.909 0 3.456 1.548 3.456 3.456z" transform="translate(20 22)"/>
            <path fill="#463191" d="M45.1 31.444l-8.764 11.371-3.871-2.983c-3.14-2.42-3.724-6.927-1.304-10.067 2.42-3.14 6.927-3.723 10.067-1.304l3.871 2.983zm20.887 89.87c3.726 5.558 12.146 18.484 12.146 18.484s-8.614-42.122-9.723-46.742l-.061.661H54.512c-.07.505-.09 1.02-.048 1.54-.057.803.015 1.629.25 2.448.636 2.226 3.778 9.164 7.015 14.229.044.394.114.802.205 1.217-2.2 1.32-4.482 3.898-5.374 5.504-1.34 2.414-9.667 14.635-10.483 15.832l.012.057c1.177-.66 14.853-8.375 19.898-13.23z" transform="translate(20 22)"/>
            <path fill="#463191" d="M56.943 58.948L44.166 48.929l.038-.05 8.764-11.37.072-.093 3.368 2.623c-.034.081-.063.163-.094.244-1.026 2.674-.362 5.537 1.082 7.597.809 1.156 1.86 2.06 2.996 2.533.205.086.404.162.6.232l-1.82 4.389.004.002-.006-.001c0 1.17-.32 1.74-.661 2.195-.592.38-1.11.967-1.566 1.718zM79.74 71.929c.529-.489 1.183-.893 1.935-1.158 1.396-.493 6.638-1.755 11.098-2.405L72.724 52.75c-.274.9-.851 1.41-2.106 1.259-.671-.08-1.48-.344-2.328-.747-.101-.046-.203-.095-.31-.148l-.252 1.396-.776 4.273-.134.738-.009.05-.013.07c.513.574 1.998 2.382 2.637 3.464 1.703 1.104 6.735 5.156 10.307 8.825zm4.557 6.271c1.707-.602 8.602-3.916 12.535-6.601.129.09.263.171.404.244L119.16 88.92c-.016-.342-.017-.686-.004-1.034-4.947-6.161-8.473-13.063-10.697-20.94-.492-1.744-.907-3.514-1.267-5.293-1.81-8.942-2.08-18.124-2.08-25.465h.974c0 9.542.556 18.291 2.324 26.358 1.915 8.736 5.253 16.673 10.871 23.936.515-3.797 2.424-7.828 4.187-11.341.175-.35.35-.694.52-1.033.503-.994.977-1.933 1.389-2.805 2.63-5.567 9.064-14.244 15.132-16.106l.286.93c-5.785 1.776-11.984 10.187-14.537 15.592-.388.822-.83 1.7-1.297 2.623l-.103.205c-2.005 3.969-4.422 8.765-4.703 13.026 1.312 1.614 3.851 5.183 3.851 5.183l-.25.252c-.064-.064-.125-.13-.188-.193l-.051-.052-8.632 11.198.074.024-.074.097-32.822-25.568h.022c.713.046 1.468-.05 2.213-.314zM120.2 89.68l-.055.007 1.701 1.325c-.58-.63-1.145-1.267-1.692-1.914.013.195.022.39.046.582zM71.422 47.6c.206.022.396-.232.43-.564.033-.334-.109-.622-.313-.644-.206-.022-.397.23-.43.563-.03.334.11.622.313.644zm6.71 99.646h11.561l-11.56-7.448v7.448zm66.395-1.595c-6.498 7.703-28.01 9.096-45.104 9.096-6.1 0-11.635-.177-15.729-.308-2.422-.077-4.34-.134-5.54-.137-1.96.002-5.928-.038-10.955-.09-11.564-.12-29.04-.303-42.41-.16-13.326.143-23.416-1.138-24.541-3.113-.185-.324-.18-.679.014-.998 1.614-2.657 20.508-3.686 48.191-2.636l-7.668-7.668 5.266-5.266.025.117.013.057 2.764 12.776.125.005-.038.972c-38.053-1.475-47.534 1.135-47.855 2.165.076.246 1.375 1.093 6.403 1.779 4.48.61 10.62.907 17.29.836 13.379-.143 30.862.04 42.43.16 5.023.053 8.985.088 10.943.09h.06c1.224 0 3.122.061 5.513.138 15.425.493 51.545 1.649 60.058-8.443 1.568-1.858 2.085-3.959 1.583-6.42-.635-3.114-2.848-5.32-5.615-6.884-3.17 2.53-8.245 3.513-11.904 4.221l-.182.035c-.12.024-12.24 2.102-15.139-1.658-.808-1.048-.825-2.398-.048-4.013 1.924-4.002 13.128-3.36 16.024-2.969 3.15.426 7.487 1.324 11.12 3.214.684-.633 1.235-1.36 1.6-2.195 1.339-3.074 1.305-8.856-.746-11.993-1.61-2.463-6.978-6.091-7.672-6.554l-1.807-.59c-.687.253-4.945 1.75-9.332 1.75-.277 0-.556-.006-.833-.018-2.451-.112-4.829-.316-7.192-.617-4.732-.602-9.407-1.6-14.508-3.083l.273-.935c5.322 1.547 10.176 2.562 15.12 3.146 2.087.247 4.19.418 6.351.516 3.298.15 6.74-.717 8.558-1.27l-2.527-.824c.611-1.928 1.837-3.58 3.448-4.727l3.975 6.515c1.853 1.295 5.583 4.05 6.96 6.158 2.281 3.49 2.265 9.607.824 12.915-.38.871-.93 1.632-1.601 2.299 2.85 1.676 5.127 4.038 5.807 7.366.56 2.734-.044 5.17-1.792 7.243zm-5.723-14.433c-3.425-1.694-7.475-2.52-10.432-2.918-1.138-.154-2.978-.29-4.991-.29-4.132 0-8.994.57-10.025 2.715-.612 1.274-.631 2.254-.059 2.997 2.072 2.684 11.12 1.89 14.183 1.297l.182-.035c3.424-.663 8.139-1.575 11.142-3.766z" transform="translate(20 22)"/>
            <path fill="#F99B1D" d="M96.832 71.599c-3.933 2.685-10.828 5.999-12.535 6.601-.745.264-1.5.36-2.214.314h-.021c-2.512.142-7.734-1.622-12.039-3.366-.642 7.294-1.397 15.552-1.613 17.908l-.061.661H54.433c.014-.53-2.29-26.872 2.51-34.77.455-.75.973-1.337 1.565-1.717.342-.457.662-1.027.662-2.195l.006.001 7.62 4.604c.513.573 1.998 2.381 2.637 3.464 1.703 1.103 6.735 5.155 10.307 8.825.529-.49 1.183-.893 1.935-1.158 1.396-.494 6.638-1.755 11.098-2.405.937-.137 1.836-.244 2.66-.314-.048.232-.075.472-.075.718 0 .878.33 1.677.87 2.287.18.203.382.386.604.542zm-36.44-21.186c.205.085.404.162.6.232 2.682.964 4.468.518 5.313-.886l-.078-.009c-.234.179-.508.286-.805.286-.833 0-1.509-.816-1.509-1.823 0-.73.359-1.357.873-1.647.194-.11.408-.175.636-.175.718 0 1.315.605 1.468 1.415.398-.99.242-2.46-.391-3.046 1.125 1.024 4.04-.388 4.023-1.825.45.322.864.563 1.248.746.436.207.828.332 1.18.383 3.249.475 2.943-5.198-.332-7.55-.929-.666-4.052-2.922-8.737-2.176-.055-.444-.017-.922-.05-1.377-.773.143-.642.907-.634 1.546-.583-.456-1.603-.468-2.297-.252.543.102 1.272.163 1.528.735-.148-.002-.469-.023-.606.039-2.914 1.311-4.605 3.103-5.414 5.01-.034.08-.063.162-.094.243-1.026 2.674-.362 5.537 1.082 7.598.809 1.155 1.86 2.06 2.996 2.533zM124.005 92.756l6.35 10.398c-1.61 1.147-2.837 2.8-3.448 4.727l-11.95-3.896-.073-.024 8.632-11.198.05.052c.064.064.125.129.188.193l.25-.252zM45.099 31.444l-8.763 11.371-.039.05 7.869 6.064.038-.05 8.764-11.37.072-.093.03-.04-7.868-6.065-.103.133zM38.56 19.302c1.25 0 2.263-1.013 2.263-2.263V2.543c0-1.25-1.013-2.263-2.263-2.263s-2.263 1.014-2.263 2.263v14.496c0 1.25 1.014 2.263 2.263 2.263zm0 33.525c-1.25 0-2.263 1.013-2.263 2.263v14.497c0 1.25 1.014 2.263 2.263 2.263 1.25 0 2.263-1.013 2.263-2.263V55.09c0-1.25-1.013-2.263-2.263-2.263zM21.797 36.065c0-1.25-1.013-2.263-2.263-2.263H5.04c-1.25 0-2.263 1.013-2.263 2.263s1.013 2.263 2.263 2.263h14.495c1.25 0 2.263-1.014 2.263-2.263zm-5.34-25.304c-.884-.884-2.316-.884-3.2 0-.884.884-.884 2.316 0 3.2l10.251 10.25c.442.443 1.02.664 1.6.664.579 0 1.158-.221 1.6-.663.884-.884.884-2.316 0-3.2l-10.251-10.25zm7.05 37.157l-10.25 10.25c-.884.885-.884 2.317 0 3.2.442.443 1.02.664 1.6.664.579 0 1.158-.221 1.6-.663l10.25-10.251c.885-.884.885-2.316 0-3.2-.883-.883-2.315-.883-3.2 0zm37.158-37.157l-10.25 10.251c-.885.884-.885 2.316 0 3.2.441.442 1.02.663 1.599.663.58 0 1.158-.221 1.6-.663l10.25-10.251c.885-.884.885-2.316 0-3.2-.883-.884-2.315-.884-3.2 0zm46.526 50.893c-1.81-8.943-2.08-18.124-2.08-25.465h.974c0 9.542.556 18.29 2.324 26.357 1.298.814 10.9-14.434 12.002-22.195 1.451-10.222-.174-24.791-12.288-27.133-13.93-2.693-13.768 15.723-11.816 25.363 1.115 5.504 4.993 18.11 10.884 23.073zm49.643-24.495c-5.268-8.909-18.05 4.348-23.785 12.224-4.072 5.59-13.619 21.178-9.582 25.758.175-.35.35-.694.52-1.033.503-.994.977-1.933 1.389-2.805 2.63-5.567 9.064-14.244 15.132-16.106l.286.93c-5.785 1.776-11.984 10.187-14.537 15.592-.388.822-.83 1.7-1.297 2.623 5.317-4.997 13.645-6.957 19.222-11.614 7.886-6.585 17.232-17.823 12.652-25.569zm-71.39 62.154c-4.326 5.758 6.094 9.921 11.924 11.246 3.663.832 12.841 2.107 16.272-.227-4.732-.602-9.407-1.6-14.507-3.083l.272-.936c5.322 1.548 10.176 2.563 15.12 3.147.116-.175-7.147-7.238-11.302-9.529-5.474-3.016-14.019-5.625-17.779-.618z" transform="translate(20 22)"/>
        </g>
    </g>
</svg>
